<svg id="Logo" xmlns="http://www.w3.org/2000/svg" viewBox="0 0 64 64"><defs><style>.cls-1,.cls-2{fill:#4b7741;}.cls-1,.cls-2,.cls-3,.cls-5{stroke:#4b7741;}.cls-1,.cls-2,.cls-3,.cls-4,.cls-5{stroke-linecap:round;stroke-linejoin:round;}.cls-1,.cls-3{stroke-width:0.33px;}.cls-3,.cls-5{fill:#fff;}.cls-4{fill:none;stroke:#fff;}</style></defs><path class="cls-1" d="M34.43,41.71v.22l0,4.81,0,5.44h5l0-1.33,0-3.06V45.1A11.19,11.19,0,0,1,34.43,41.71Z"/><path class="cls-1" d="M40.39,45.42v3.71l0,2.35v.7h5V51.6l0-6.19A11.85,11.85,0,0,1,40.39,45.42Z"/><path class="cls-1" d="M46.43,49.13l0,2.35v.7h5V51.6l0-7.3V43a20.85,20.85,0,0,1-5,2.2Z"/><path class="cls-2" d="M44.37,23.15c-4.29,1-7,4.37-8.6,7.85a4.13,4.13,0,0,1,1.06-.14c1.71,0,2.56.68,2.56,2a1.9,1.9,0,0,1-.67,1.55,2.91,2.91,0,0,1-1.9.55c-1.15,0-1.89-.35-2.22-1.06A32,32,0,0,0,33.23,40v0a10.3,10.3,0,0,0,1.19,1.68l0-2.3,0-2.81V36h5v.42l0,2.31,0,3.58,0,2.75a9.36,9.36,0,0,0,1.1.32v-.55l0-5.57v-3l0-3.29V32h5v.75l0,5.21V40.2l0,4.1v1.11c.35-.07.71-.16,1.08-.26v-.28l0-5.57v-3l0-3.29V32h5v8.2l0,2.75.23-.13C59.42,38.13,63,24.63,63,24.63S52.52,21.28,44.37,23.15Z"/><path class="cls-3" d="M39.33,38.77l0-2.31V36h-5v.56l0,2.81,0,2.3a11.19,11.19,0,0,0,4.86,3.39l0-2.75Z"/><path class="cls-3" d="M45.37,40.2V38l0-5.21V32h-5v1l0,3.29v3l0,5.57v.55a11.85,11.85,0,0,0,5,0V44.3Z"/><path class="cls-3" d="M51.44,38V32h-5v1l0,3.29v3l0,5.57v.28a20.85,20.85,0,0,0,5-2.2l0-2.75Z"/><path class="cls-4" d="M33.23,40s12.13-10.55,19.2-9.82"/><path class="cls-2" d="M22.35,27.61a9.68,9.68,0,0,1,5.68,3q-2.72-3.22-7.37-8.18a37.22,37.22,0,0,1-3.91-4.64,5.78,5.78,0,0,1-1.15-3,1.91,1.91,0,0,1,.93-1.64,4.25,4.25,0,0,1,2.41-.64,14,14,0,0,1,5,1,12.72,12.72,0,0,1,4.2,2.5c.65.61,1.14.92,1.48.92a1,1,0,0,0,.63-.28.81.81,0,0,0,.31-.61q0-.68-1.11-1.68a12.07,12.07,0,0,0-2.64-1.78,20.26,20.26,0,0,0-9-2A19.74,19.74,0,0,0,6.11,14a10.51,10.51,0,0,0-4.84,8.9,14.2,14.2,0,0,0,2.54,7.6,76.89,76.89,0,0,0,7.69,9.25l.6.65A40.12,40.12,0,0,1,6.43,30.35S15.18,26.64,22.35,27.61Z"/><path class="cls-5" d="M3.28,46.12A1.89,1.89,0,0,0,2,45.32a1,1,0,0,0-.72.31.94.94,0,0,0-.31.69Q1,47.66,4.46,50A19.84,19.84,0,0,0,15.9,53.39a23,23,0,0,0,12-2.93,11.31,11.31,0,0,0,4-3.93,9.63,9.63,0,0,0,1.45-5.08"/><path class="cls-2" d="M14,42.51l-1.92-2.1A22.56,22.56,0,0,0,14,42.51Z"/><path class="cls-2" d="M28,30.59c.64.75,1.19,1.43,1.67,2A14.73,14.73,0,0,0,28,30.59Z"/><path class="cls-5" d="M33.26,41.24a25.75,25.75,0,0,0-3.56-8.61c-.48-.61-1-1.29-1.67-2a9.68,9.68,0,0,0-5.68-3c-7.17-1-15.92,2.74-15.92,2.74A40.12,40.12,0,0,0,12.1,40.41L14,42.51a14.12,14.12,0,0,0,3.62,2.6C29.39,50.79,33.26,41.24,33.26,41.24Z"/><path class="cls-5" d="M33.26,41.24S22,33.12,16,34.31"/></svg>