<?xml version="1.0" encoding="utf-8"?>
<!-- Generator: Adobe Illustrator 24.3.0, SVG Export Plug-In . SVG Version: 6.00 Build 0)  -->
<svg version="1.1" id="Logo" xmlns="http://www.w3.org/2000/svg" xmlns:xlink="http://www.w3.org/1999/xlink" x="0px" y="0px"
	 viewBox="0 0 200 200" style="enable-background:new 0 0 200 200;" xml:space="preserve">
<style type="text/css">
	.st0{fill:#222222;}
	.st1{fill:#FFFFFF;stroke:#222222;stroke-width:3;stroke-linecap:round;stroke-linejoin:round;stroke-miterlimit:10;}
	.st2{fill:none;stroke:#222222;stroke-width:3;stroke-linecap:round;stroke-linejoin:round;stroke-miterlimit:10;}
	.st3{fill:#000222;}
	.st4{fill:#FFFFFF;stroke:#000222;stroke-width:3;stroke-linecap:round;stroke-linejoin:round;stroke-miterlimit:10;}
	.st5{fill:none;stroke:#000222;stroke-width:3;stroke-linecap:round;stroke-linejoin:round;stroke-miterlimit:10;}
	.st6{fill:none;stroke:#000000;stroke-width:3;stroke-linecap:round;stroke-linejoin:round;stroke-miterlimit:10;}
	.st7{fill:none;}
	.st8{fill:#FFFFFF;stroke:#000000;stroke-width:3;stroke-linecap:round;stroke-linejoin:round;stroke-miterlimit:10;}
	.st9{fill:#FFFFFF;}
	.st10{fill:none;stroke:#000000;stroke-width:3;stroke-linecap:round;stroke-linejoin:round;stroke-dasharray:0.9996,14.9946;}
	.st11{fill:#FFFFFF;stroke:#000000;stroke-width:3;stroke-miterlimit:10;}
	.st12{fill:#E9A150;stroke:#222222;stroke-width:3;stroke-linecap:round;stroke-linejoin:round;stroke-miterlimit:10;}
	.st13{fill:#4D7A42;stroke:#222222;stroke-width:3;stroke-linecap:round;stroke-linejoin:round;stroke-miterlimit:10;}
	.st14{fill:#DD9D9D;stroke:#222222;stroke-width:3;stroke-linecap:round;stroke-linejoin:round;stroke-miterlimit:10;}
	.st15{fill:#A7C6D8;stroke:#222222;stroke-width:3;stroke-linecap:round;stroke-linejoin:round;stroke-miterlimit:10;}
	.st16{fill:#B18BCB;stroke:#222222;stroke-width:3;stroke-linecap:round;stroke-linejoin:round;stroke-miterlimit:10;}
	.st17{fill:#F7C705;stroke:#222222;stroke-width:3;stroke-linecap:round;stroke-linejoin:round;stroke-miterlimit:10;}
	.st18{fill:#91B773;stroke:#222222;stroke-width:3;stroke-linecap:round;stroke-linejoin:round;stroke-miterlimit:10;}
</style>
<g>
	<path class="st0" d="M76.92,143.61c-14.99,0-27.2,12.2-27.2,27.2s12.2,27.2,27.2,27.2s27.2-12.2,27.2-27.2
		S91.91,143.61,76.92,143.61z M76.92,187.64c-9.28,0-16.84-7.55-16.84-16.84s7.55-16.84,16.84-16.84s16.84,7.55,16.84,16.84
		S86.2,187.64,76.92,187.64z"/>
	<path class="st0" d="M146.55,143.61c-14.99,0-27.2,12.2-27.2,27.2s12.2,27.2,27.2,27.2s27.2-12.2,27.2-27.2
		S161.54,143.61,146.55,143.61z M146.55,187.64c-9.28,0-16.84-7.55-16.84-16.84s7.55-16.84,16.84-16.84s16.84,7.55,16.84,16.84
		S155.83,187.64,146.55,187.64z"/>
	<path class="st0" d="M194,32.6c-3.79-5.04-9.58-7.93-15.89-7.93h-4.37v10.36h4.37c3.02,0,5.79,1.39,7.61,3.8
		c1.81,2.41,2.37,5.45,1.53,8.34l-16.02,55.44c-2.97,10.29-12.54,17.47-23.26,17.47H72.04c-12.66,0-23.03-9.5-24.12-22.1l-0.11-1.24
		h0l-5.34-61.72l-0.9-10.36l-0.39-4.52C40.29,9.8,31.78,2,21.39,2H2v10.36h19.39c4.98,0,9.05,3.73,9.48,8.68l0.31,3.63h0l6.42,74.2
		c1.56,17.99,16.36,31.56,34.44,31.56h75.94c15.31,0,28.96-10.26,33.21-24.95l16.02-55.44C198.95,43.99,197.79,37.63,194,32.6z"/>
</g>
</svg>
