<?xml version="1.0" encoding="utf-8"?>
<!-- Generator: Adobe Illustrator 24.3.0, SVG Export Plug-In . SVG Version: 6.00 Build 0)  -->
<svg version="1.1" id="레이어_1" xmlns="http://www.w3.org/2000/svg" xmlns:xlink="http://www.w3.org/1999/xlink" x="0px"
	 y="0px" viewBox="0 0 500 98.9" style="enable-background:new 0 0 500 98.9;" xml:space="preserve">
<style type="text/css">
	.st0{clip-path:url(#SVGID_2_);}
	.st1{fill:#2D2A24;}
</style>
<g>
	<defs>
		<rect id="SVGID_1_" width="500" height="98.9"/>
	</defs>
	<clipPath id="SVGID_2_">
		<use xlink:href="#SVGID_1_"  style="overflow:visible;"/>
	</clipPath>
	<g class="st0">
		<path class="st1" d="M21.8,9.6h7.6v55.2c0,6.9-2,8.2-7,11.4v0.9h30.2v-0.9c-5-3.2-7.1-4.6-7.1-11.4V9.6h7.6
			c10.4,0,14.3,8.2,20.7,17.5h1.2L72,4.4c-2,0.4-4.1,0.7-6.2,0.6H9.4c-2.1,0-4.2-0.2-6.2-0.6L0,27.1h1.2C7.5,17.9,11.4,9.6,21.8,9.6
			z"/>
		<path class="st1" d="M86.5,11.5v53.9c0,6.8-1.1,7.7-5.5,10.7v0.9h26.5v-0.9c-4.4-3-5.6-3.9-5.6-10.7V50c0-10.2,4.7-14.8,10.6-14.8
			s8.2,4.2,8.2,9.9v20.4c0,6.8-1.1,7.7-5.6,10.7v0.9h26.5v-0.9c-4.4-3-5.5-3.9-5.5-10.7V43.2c0-10.2-5-17.9-16.6-17.9
			c-8.1,0-14.4,4.8-17.6,13.9V0H80v0.9C84.2,3.6,86.5,5,86.5,11.5z"/>
		<path class="st1" d="M174.3,78.1c11.8,0,20.2-6,23.1-16.7l-2.2-0.7c-3.6,7.2-8.7,9.8-15.5,9.8c-9.8,0-15.6-8-15.6-19.7h34.3
			c0-16-8.3-25.5-24-25.5c-14.7,0-26.6,10.4-26.6,26.6C147.9,69.2,159.7,78.1,174.3,78.1z M174.3,29.8c7,0,8.5,8.1,8.7,16.5h-18.7
			C164.8,36.9,167.7,29.8,174.3,29.8z"/>
		<path class="st1" d="M370.9,72.9c-11,0-18.1-7.6-25.5-19.5h-2l1.4,24.7h1.5l4.5-6.4c6,4,12.9,6.2,20.1,6.4
			c15.1,0,27.4-8.2,27.4-22.7c0-12.2-7-17.5-18.3-21.1l-9.8-3c-7.9-2.5-11.4-5.6-11.4-12S364,8.7,371.1,8.7c10,0,15.4,6.7,22.4,17.4
			h1.4l-0.3-22h-1.4l-4.4,5.2c-5.3-3.3-11.5-5-17.7-5.2c-16.1,0-26.5,8.4-26.5,21.3c0,11.2,6.5,16.9,19,20.9l9.6,3
			c7.2,2.2,11.1,5.5,11.1,12C384.4,68.7,379.4,72.9,370.9,72.9z"/>
		<path class="st1" d="M420.7,18.6c1.2,0,2.4-0.2,3.5-0.6c1.1-0.4,2.1-1.1,3-1.9c0.9-0.8,1.5-1.8,2-2.9c0.5-1.1,0.7-2.3,0.7-3.5
			c-0.1-2.4-1.1-4.6-2.8-6.2c-1.7-1.6-4-2.5-6.3-2.5c-2.4,0-4.6,0.9-6.3,2.5c-1.7,1.6-2.7,3.9-2.8,6.2c0,1.2,0.2,2.4,0.7,3.5
			c0.5,1.1,1.1,2.1,2,2.9c0.8,0.8,1.9,1.5,3,1.9C418.4,18.5,419.6,18.7,420.7,18.6z"/>
		<path class="st1" d="M413.4,37.9v27.6c0,6.8-1.1,7.7-5.6,10.7v0.9h26.5v-0.9c-4.4-3-5.5-3.9-5.5-10.7V26.4H407v0.9
			C411.3,30.1,413.4,31.4,413.4,37.9z"/>
		<path class="st1" d="M446.8,11.5v53.9c0,6.8-1.1,7.7-5.5,10.7v0.9h26.5v-0.9c-4.4-3-5.5-3.9-5.5-10.7V0h-22v0.9
			C444.5,3.6,446.8,5,446.8,11.5z"/>
		<path class="st1" d="M479.9,11.5v53.9c0,6.8-1.1,7.7-5.5,10.7v0.9h26.5v-0.9c-4.4-3-5.6-3.9-5.6-10.7V0h-22v0.9
			C477.6,3.6,479.9,5,479.9,11.5z"/>
		<path class="st1" d="M500,96.2H0v2.7h500V96.2z"/>
	</g>
</g>
</svg>
