<?xml version="1.0" encoding="utf-8"?>
<!-- Generator: Adobe Illustrator 24.3.0, SVG Export Plug-In . SVG Version: 6.00 Build 0)  -->
<svg version="1.1" id="Logo" xmlns="http://www.w3.org/2000/svg" xmlns:xlink="http://www.w3.org/1999/xlink" x="0px" y="0px"
	 viewBox="0 0 200 200" style="enable-background:new 0 0 200 200;" xml:space="preserve">
<style type="text/css">
	.st0{fill:#222222;}
	.st1{fill:#FFFFFF;stroke:#222222;stroke-width:3;stroke-linecap:round;stroke-linejoin:round;stroke-miterlimit:10;}
	.st2{fill:none;stroke:#222222;stroke-width:3;stroke-linecap:round;stroke-linejoin:round;stroke-miterlimit:10;}
	.st3{fill:#000222;}
	.st4{fill:#FFFFFF;stroke:#000222;stroke-width:3;stroke-linecap:round;stroke-linejoin:round;stroke-miterlimit:10;}
	.st5{fill:none;stroke:#000222;stroke-width:3;stroke-linecap:round;stroke-linejoin:round;stroke-miterlimit:10;}
	.st6{fill:none;stroke:#000000;stroke-width:3;stroke-linecap:round;stroke-linejoin:round;stroke-miterlimit:10;}
	.st7{fill:none;}
	.st8{fill:#FFFFFF;stroke:#000000;stroke-width:3;stroke-linecap:round;stroke-linejoin:round;stroke-miterlimit:10;}
	.st9{fill:#FFFFFF;}
	.st10{fill:none;stroke:#000000;stroke-width:3;stroke-linecap:round;stroke-linejoin:round;stroke-dasharray:0.9996,14.9946;}
	.st11{fill:#FFFFFF;stroke:#000000;stroke-width:3;stroke-miterlimit:10;}
	.st12{fill:#E9A150;stroke:#222222;stroke-width:3;stroke-linecap:round;stroke-linejoin:round;stroke-miterlimit:10;}
	.st13{fill:#4D7A42;stroke:#222222;stroke-width:3;stroke-linecap:round;stroke-linejoin:round;stroke-miterlimit:10;}
	.st14{fill:#DD9D9D;stroke:#222222;stroke-width:3;stroke-linecap:round;stroke-linejoin:round;stroke-miterlimit:10;}
	.st15{fill:#A7C6D8;stroke:#222222;stroke-width:3;stroke-linecap:round;stroke-linejoin:round;stroke-miterlimit:10;}
	.st16{fill:#B18BCB;stroke:#222222;stroke-width:3;stroke-linecap:round;stroke-linejoin:round;stroke-miterlimit:10;}
	.st17{fill:#F7C705;stroke:#222222;stroke-width:3;stroke-linecap:round;stroke-linejoin:round;stroke-miterlimit:10;}
	.st18{fill:#91B773;stroke:#222222;stroke-width:3;stroke-linecap:round;stroke-linejoin:round;stroke-miterlimit:10;}
</style>
<g>
	<g>
		<circle class="st6" cx="99.99" cy="99.99" r="83.3"/>
		<circle class="st6" cx="99.99" cy="99.99" r="68.6"/>
		<line class="st6" x1="99.99" y1="1.99" x2="99.99" y2="60.79"/>
		<line class="st6" x1="1.99" y1="99.99" x2="60.79" y2="99.99"/>
		<line class="st6" x1="99.99" y1="197.99" x2="99.99" y2="139.19"/>
		<line class="st6" x1="197.99" y1="99.99" x2="139.19" y2="99.99"/>
	</g>
	<g>
		<path class="st11" d="M126.38,101.82c-20.16,12.14-28.69-4.38-28.69-4.38s2.19-22.81,17.36-26.29c12.72-2.91,29.05,2.3,29.05,2.3
			S138.52,94.51,126.38,101.82z"/>
		<path class="st11" d="M97.68,97.44c0,0,18.91-16.43,29.93-15.31"/>
		<path class="st11" d="M73.38,105.38c18.31,8.85,24.35-6.04,24.35-6.04S94.04,79.89,80.71,78.1c-11.17-1.5-24.82,4.28-24.82,4.28
			S62.36,100.06,73.38,105.38z"/>
		<path class="st11" d="M97.73,99.35c0,0-17.57-12.65-26.97-10.8"/>
		<line class="st11" x1="97.68" y1="97.44" x2="97.68" y2="129.71"/>
	</g>
</g>
</svg>
