<?xml version="1.0" encoding="utf-8"?>
<!-- Generator: Adobe Illustrator 24.3.0, SVG Export Plug-In . SVG Version: 6.00 Build 0)  -->
<svg version="1.1" id="Logo" xmlns="http://www.w3.org/2000/svg" xmlns:xlink="http://www.w3.org/1999/xlink" x="0px" y="0px"
	 viewBox="0 0 200 200" style="enable-background:new 0 0 200 200;" xml:space="preserve">
<style type="text/css">
	.st0{fill:#222222;}
	.st1{fill:#FFFFFF;stroke:#222222;stroke-width:3;stroke-linecap:round;stroke-linejoin:round;stroke-miterlimit:10;}
	.st2{fill:none;stroke:#222222;stroke-width:3;stroke-linecap:round;stroke-linejoin:round;stroke-miterlimit:10;}
	.st3{fill:#000222;}
	.st4{fill:#FFFFFF;stroke:#000222;stroke-width:3;stroke-linecap:round;stroke-linejoin:round;stroke-miterlimit:10;}
	.st5{fill:none;stroke:#000222;stroke-width:3;stroke-linecap:round;stroke-linejoin:round;stroke-miterlimit:10;}
	.st6{fill:none;stroke:#000000;stroke-width:3;stroke-linecap:round;stroke-linejoin:round;stroke-miterlimit:10;}
	.st7{fill:none;}
	.st8{fill:#FFFFFF;stroke:#000000;stroke-width:3;stroke-linecap:round;stroke-linejoin:round;stroke-miterlimit:10;}
	.st9{fill:#FFFFFF;}
	.st10{fill:none;stroke:#000000;stroke-width:3;stroke-linecap:round;stroke-linejoin:round;stroke-dasharray:0.9996,14.9946;}
	.st11{fill:#FFFFFF;stroke:#000000;stroke-width:3;stroke-miterlimit:10;}
	.st12{fill:#E9A150;stroke:#222222;stroke-width:3;stroke-linecap:round;stroke-linejoin:round;stroke-miterlimit:10;}
	.st13{fill:#4D7A42;stroke:#222222;stroke-width:3;stroke-linecap:round;stroke-linejoin:round;stroke-miterlimit:10;}
	.st14{fill:#DD9D9D;stroke:#222222;stroke-width:3;stroke-linecap:round;stroke-linejoin:round;stroke-miterlimit:10;}
	.st15{fill:#A7C6D8;stroke:#222222;stroke-width:3;stroke-linecap:round;stroke-linejoin:round;stroke-miterlimit:10;}
	.st16{fill:#B18BCB;stroke:#222222;stroke-width:3;stroke-linecap:round;stroke-linejoin:round;stroke-miterlimit:10;}
	.st17{fill:#F7C705;stroke:#222222;stroke-width:3;stroke-linecap:round;stroke-linejoin:round;stroke-miterlimit:10;}
	.st18{fill:#91B773;stroke:#222222;stroke-width:3;stroke-linecap:round;stroke-linejoin:round;stroke-miterlimit:10;}
</style>
<g>
	<g>
		<g>
			<rect x="50.02" y="89.76" class="st8" width="50.09" height="50.09"/>
			<polygon class="st8" points="83.85,114.8 75.5,108.01 67.15,114.8 67.15,89.76 83.85,89.76 			"/>
		</g>
		<g>
			<path class="st8" d="M97.73,66.26c-16.99,10.23-24.18-3.69-24.18-3.69s1.84-19.22,14.62-22.15c10.71-2.46,24.48,1.94,24.48,1.94
				S107.96,60.1,97.73,66.26z"/>
			<path class="st8" d="M73.56,62.57c0,0,15.93-13.85,25.22-12.9"/>
			<path class="st8" d="M53.08,69.26c15.43,7.46,20.52-5.09,20.52-5.09s-3.11-16.4-14.34-17.9c-9.41-1.27-20.91,3.6-20.91,3.6
				S43.79,64.77,53.08,69.26z"/>
			<path class="st8" d="M73.59,64.17c0,0-14.81-10.66-22.73-9.1"/>
			<line class="st8" x1="73.56" y1="62.57" x2="73.56" y2="89.76"/>
		</g>
	</g>
	
		<rect x="152.64" y="125.87" transform="matrix(0.7071 -0.7071 0.7071 0.7071 -67.7554 163.5885)" class="st11" width="21.9" height="75.43"/>
	<path class="st11" d="M119.15,134.62l10.03,10.03l15.48-15.48l-10.03-10.03C130.27,125.04,125.05,130.26,119.15,134.62z"/>
	<g>
		<path class="st11" d="M75.5,1.99C34.91,1.99,2,34.9,2,75.49s32.91,73.5,73.5,73.5c16.35,0,31.44-5.34,43.65-14.37
			c5.9-4.36,11.12-9.58,15.48-15.48c9.03-12.21,14.37-27.3,14.37-43.65C149,34.9,116.09,1.99,75.5,1.99z M75.5,129.39
			c-29.77,0-53.9-24.13-53.9-53.9c0-29.77,24.13-53.9,53.9-53.9s53.9,24.13,53.9,53.9C129.4,105.26,105.27,129.39,75.5,129.39z"/>
	</g>
</g>
</svg>
