<?xml version="1.0" encoding="utf-8"?>
<!-- Generator: Adobe Illustrator 24.3.0, SVG Export Plug-In . SVG Version: 6.00 Build 0)  -->
<svg version="1.1" id="Logo" xmlns="http://www.w3.org/2000/svg" xmlns:xlink="http://www.w3.org/1999/xlink" x="0px" y="0px"
	 viewBox="0 0 200 199.88" style="enable-background:new 0 0 200 199.88;" xml:space="preserve">
<style type="text/css">
	.st0{fill:#222222;}
	.st1{fill:#FFFFFF;stroke:#222222;stroke-width:3;stroke-linecap:round;stroke-linejoin:round;stroke-miterlimit:10;}
	.st2{fill:none;stroke:#222222;stroke-width:3;stroke-linecap:round;stroke-linejoin:round;stroke-miterlimit:10;}
	.st3{fill:#000222;}
	.st4{fill:#FFFFFF;stroke:#000222;stroke-width:3;stroke-linecap:round;stroke-linejoin:round;stroke-miterlimit:10;}
	.st5{fill:none;stroke:#000222;stroke-width:3;stroke-linecap:round;stroke-linejoin:round;stroke-miterlimit:10;}
	.st6{fill:none;stroke:#000000;stroke-width:3;stroke-linecap:round;stroke-linejoin:round;stroke-miterlimit:10;}
	.st7{fill:none;}
	.st8{fill:#FFFFFF;stroke:#000000;stroke-width:3;stroke-linecap:round;stroke-linejoin:round;stroke-miterlimit:10;}
	.st9{fill:#FFFFFF;}
	.st10{fill:none;stroke:#000000;stroke-width:3;stroke-linecap:round;stroke-linejoin:round;stroke-dasharray:0.9996,14.9946;}
	.st11{fill:#FFFFFF;stroke:#000000;stroke-width:3;stroke-miterlimit:10;}
	.st12{fill:#E9A150;stroke:#222222;stroke-width:3;stroke-linecap:round;stroke-linejoin:round;stroke-miterlimit:10;}
	.st13{fill:#4D7A42;stroke:#222222;stroke-width:3;stroke-linecap:round;stroke-linejoin:round;stroke-miterlimit:10;}
	.st14{fill:#DD9D9D;stroke:#222222;stroke-width:3;stroke-linecap:round;stroke-linejoin:round;stroke-miterlimit:10;}
	.st15{fill:#A7C6D8;stroke:#222222;stroke-width:3;stroke-linecap:round;stroke-linejoin:round;stroke-miterlimit:10;}
	.st16{fill:#B18BCB;stroke:#222222;stroke-width:3;stroke-linecap:round;stroke-linejoin:round;stroke-miterlimit:10;}
	.st17{fill:#F7C705;stroke:#222222;stroke-width:3;stroke-linecap:round;stroke-linejoin:round;stroke-miterlimit:10;}
	.st18{fill:#91B773;stroke:#222222;stroke-width:3;stroke-linecap:round;stroke-linejoin:round;stroke-miterlimit:10;}
</style>
<path class="st6" d="M28.1,22.01c0,0,11.81-10.26,18.69-9.56"/>
<path class="st6" d="M28.13,23.2c0,0-10.98-7.9-16.85-6.75"/>
<line class="st6" x1="28.1" y1="22.01" x2="28.1" y2="36.59"/>
<path class="st6" d="M51.16,47.09c0,0,11.81-10.26,18.69-9.56"/>
<path class="st6" d="M35.98,52.05c11.44,5.53,15.21-3.77,15.21-3.77S48.88,36.12,40.56,35c-6.98-0.94-15.5,2.67-15.5,2.67
	S29.09,48.72,35.98,52.05z"/>
<path class="st6" d="M51.19,48.28c0,0-10.98-7.9-16.85-6.75"/>
<line class="st6" x1="51.16" y1="47.09" x2="51.16" y2="57.88"/>
<path class="st6" d="M39.16,74.85c0,0,6.95-10.17,13.82-9.46"/>
<path class="st6" d="M23.98,79.81c11.44,5.53,15.21-3.77,15.21-3.77s-2.3-12.15-10.63-13.27c-6.98-0.94-15.5,2.67-15.5,2.67
	S17.1,76.48,23.98,79.81z"/>
<path class="st6" d="M39.19,76.04c0,0-10.98-7.9-16.85-6.75"/>
<line class="st6" x1="39.16" y1="74.85" x2="39.16" y2="95"/>
<g>
	<path class="st6" d="M133.86,36.91c-12.59,7.58-17.92-2.73-17.92-2.73s1.37-14.25,10.84-16.42c7.94-1.82,18.14,1.43,18.14,1.43
		S141.44,32.35,133.86,36.91z"/>
	<path class="st6" d="M115.94,34.18c0,0,11.81-10.26,18.69-9.56"/>
	<path class="st6" d="M100.76,39.14c11.44,5.53,15.21-3.77,15.21-3.77s-2.3-12.15-10.63-13.27c-6.98-0.94-15.5,2.67-15.5,2.67
		S93.88,35.81,100.76,39.14z"/>
	<path class="st6" d="M115.97,35.37c0,0-10.98-7.9-16.85-6.75"/>
	<line class="st6" x1="115.94" y1="34.18" x2="115.94" y2="43.36"/>
</g>
<path class="st6" d="M144.72,65.88c-11.44,5.53-15.21-3.77-15.21-3.77s2.3-12.15,10.63-13.27c6.98-0.94,15.5,2.67,15.5,2.67
	S151.61,62.55,144.72,65.88z"/>
<path class="st6" d="M129.52,62.1c0,0,10.98-7.9,16.85-6.75"/>
<g>
	<path class="st6" d="M101.96,125.2c0,0-7.12-9.21-12.18-8.64"/>
	<path class="st6" d="M100.69,127.54c0,0-5.11-4.43-8.02-3.93"/>
	<path class="st6" d="M115.28,133.82c0,0,11.32,2.73,12.87,7.58"/>
	<path class="st6" d="M113.67,135.95c0,0,6.14,2.85,6.86,5.71"/>
	<polygon class="st7" points="152.3,172.4 131.94,159.21 131.94,159.21 	"/>
	<polygon class="st7" points="83.13,108.85 44.53,83.85 83.13,108.85 	"/>
	<polygon class="st7" points="95.36,135.52 95.35,135.53 95.36,135.52 94.35,134.87 94.35,134.87 	"/>
	<path class="st6" d="M95.36,135.52l-1-0.65l-19.96,1.53l2.71-9.29l-8.71-6.55l3.59-0.18l-19.16-12.41l-12.11-7.85
		c-3.23,21.61-0.78,51.83,20.47,88.15L95.36,135.52L95.36,135.52z"/>
	<path class="st6" d="M191,152.29l0.03-0.05c13.22-20.66,7.26-48.25-13.35-61.6c-3.8-2.46-7.92-4.32-12.25-5.53
		c-4.19-1.17-8.52-1.73-12.9-1.64c-1.66,0.03-3.32,0.19-4.97,0.4l-27.29,42.13c8.47-0.12,21.48,1.51,21.86,11.64
		c0.17,4.57-1.95,5.7-4.24,6.69l38.61,25.01l0,0l0,0C185.65,161.04,190.13,153.8,191,152.29z"/>
	<path class="st6" d="M131.94,159.21l1.3,3.35l-9.54-5.27l-7.37,6.27l-6.76-18.84l-1-0.65L74.4,196.83
		c41.83,4.54,70.41-5.58,88.81-17.37l-10.9-7.06L131.94,159.21z"/>
	<path class="st6" d="M87.51,102.25c9.4-3.8,16.21,7.41,19.56,15.19l27.29-42.13c-0.48-1.6-1.02-3.18-1.67-4.72
		c-1.71-4.01-3.98-7.74-6.77-11.09c-2.87-3.45-6.26-6.45-10.06-8.91C95.25,37.24,67.65,43.08,54.2,63.58
		c-0.91,1.26-5.78,8.34-9.67,20.27l38.6,25C83.11,106.36,83.27,103.96,87.51,102.25z"/>
	<path class="st6" d="M108.57,144.08l1,0.65l-1.04-2.9c-1.26,0.38-2.68,0.24-3.86-0.53l-5.18-3.35c-1.19-0.77-1.89-2-2.06-3.31
		l-3.07,0.24l1,0.65l0,0.01l-34.17,52.75l0,0l0,0c0.84,1.44,1.66,2.87,2.56,4.33l1.96,3.17l3.69,0.5c1.7,0.23,3.34,0.39,5,0.57l0,0
		l0,0L108.57,144.08z"/>
	<polygon class="st6" points="95.35,135.53 61.18,188.28 61.18,188.28 	"/>
	<polygon class="st6" points="109.57,144.73 109.57,144.73 108.57,144.08 74.4,196.83 74.4,196.83 108.57,144.08 	"/>
	<path class="st6" d="M78.22,120.07c0.83-2.12,2.45-3.37,4.17-6.46c0.85-1.53,0.76-3.16,0.74-4.76l-38.6-25
		c-1.53,4.69-2.9,10.14-3.82,16.28l12.11,7.85l19.16,12.41L78.22,120.07z"/>
	<polygon class="st6" points="71.99,120.38 52.83,107.97 71.99,120.38 	"/>
	<path class="st6" d="M107.62,118.76c1.29-0.42,2.75-0.3,3.97,0.49l5.18,3.35c1.22,0.79,1.93,2.07,2.07,3.42
		c0.46-0.02,0.94-0.03,1.44-0.04l27.29-42.13l0,0l0,0c-1.19,0.16-2.37,0.33-3.53,0.58c-2.66,0.57-5.29,1.39-7.79,2.42
		c-0.08-2.71-0.4-5.44-0.97-8.1c-0.25-1.16-0.57-2.31-0.92-3.46l-27.29,42.13C107.26,117.89,107.45,118.34,107.62,118.76z"/>
	<rect x="133.92" y="79.83" class="st6" width="0" height="50.2"/>
	<path class="st6" d="M133.86,146.94c-2.11,2.84-2.59,4.83-4.19,6.45l2.26,5.82l20.37,13.19l10.9,7.06l0,0l0,0
		c5.23-3.35,9.65-6.82,13.3-10.14l-38.61-25.01C136.44,144.96,134.9,145.54,133.86,146.94z"/>
	<polygon class="st6" points="152.3,172.4 163.21,179.47 163.21,179.47 	"/>
	<path class="st6" d="M97.41,134.44c-1.61-0.21-3.41-0.55-5.27-1.01c0,0,0,0,0,0c-6.41-1.58-13.33-4.63-14.32-9.28c0,0,0,0,0,0
		c-0.11-0.49-0.17-1-0.13-1.53c0.07-1.02,0.26-1.84,0.54-2.56l-6.24,0.31l0,0l-3.59,0.18l8.71,6.55l-2.71,9.29l19.96-1.53l0,0
		l3.07-0.24C97.42,134.57,97.41,134.51,97.41,134.44z"/>
	<path class="st6" d="M100.87,127.26l4.29-6.62c0.6-0.93,1.49-1.55,2.47-1.87c-0.17-0.43-0.36-0.87-0.56-1.33
		c-3.35-7.78-10.16-18.99-19.56-15.19c-4.24,1.71-4.4,4.11-4.37,6.6c0,0,0,0,0,0c0.02,1.6,0.11,3.24-0.74,4.76
		c-1.72,3.09-3.35,4.34-4.17,6.46c-0.28,0.72-0.47,1.53-0.54,2.56c-0.04,0.53,0.03,1.03,0.13,1.53c0,0,0,0,0,0
		c1,4.65,7.91,7.7,14.32,9.28c0,0,0,0,0,0c1.85,0.46,3.66,0.8,5.27,1.01c-0.09-1,0.12-2.03,0.71-2.93L100.87,127.26z"/>
	<path class="st6" d="M131.94,159.21L131.94,159.21l-2.27-5.82c-0.54,0.55-1.21,1.06-2.11,1.54c-0.47,0.25-0.96,0.4-1.45,0.5
		c-4.65,0.99-10.26-4.07-14.32-9.28c0,0,0,0,0,0c-1.17-1.5-2.22-3.01-3.07-4.39c-0.06,0.02-0.12,0.04-0.18,0.06l1.04,2.9l0,0
		l6.76,18.84l7.37-6.27l9.54,5.27L131.94,159.21z"/>
	<path class="st6" d="M142.14,137.63c-0.38-10.14-13.39-11.77-21.86-11.64c-0.49,0.01-0.98,0.02-1.44,0.04
		c0.11,1.03-0.09,2.09-0.7,3.02l-4.29,6.62l-2.75,4.25c-0.58,0.9-1.44,1.52-2.39,1.84c0.85,1.38,1.9,2.89,3.07,4.39c0,0,0,0,0,0
		c4.06,5.2,9.68,10.27,14.32,9.28c0.49-0.11,0.98-0.26,1.45-0.5c0.91-0.48,1.57-0.99,2.11-1.54c1.59-1.62,2.07-3.61,4.19-6.45
		c1.04-1.4,2.58-1.98,4.04-2.62c0,0,0,0,0,0C140.19,143.33,142.31,142.2,142.14,137.63z"/>
	<path class="st6" d="M111.1,139.92l2.75-4.25l4.29-6.62c0.6-0.93,0.81-1.99,0.7-3.02c-0.15-1.35-0.85-2.63-2.07-3.42l-5.18-3.35
		c-1.22-0.79-2.68-0.91-3.97-0.49c-0.98,0.32-1.87,0.94-2.47,1.87l-4.29,6.62l-2.76,4.25c-0.58,0.9-0.79,1.93-0.71,2.93
		c0.01,0.06,0.01,0.13,0.02,0.19c0.17,1.31,0.87,2.54,2.06,3.31l5.18,3.35c1.19,0.77,2.6,0.9,3.86,0.53
		c0.06-0.02,0.12-0.04,0.18-0.06C109.66,141.44,110.52,140.82,111.1,139.92z"/>
</g>
<g>
	<path class="st7" d="M39.54,114.99c0-0.05,0-0.11,0-0.16C39.54,114.88,39.54,114.94,39.54,114.99z"/>
	<path class="st7" d="M157.22,46.64c0-0.01,0-0.06,0-0.06c0-20.34-16.49-36.83-36.83-36.83c-3.81,0-7.49,0.58-10.95,1.66
		c-3.46,1.08-6.7,2.65-9.64,4.63c-1.96,1.32-3.78,2.83-5.45,4.5c-1.67,1.67-3.17,3.49-4.5,5.45c-3.54,5.24-5.75,11.44-6.2,18.12
		c-0.02,0-0.03,0.01-0.05,0.01c6.65-1.21,13.58-0.94,20.24,0.96c3.66-0.81,9.73-1.76,14.86-0.58c9.47,2.17,10.84,16.42,10.84,16.42
		s-0.39,0.76-1.21,1.71c1.72,2.49,3.21,5.15,4.4,7.95c1.11,2.64,1.98,5.38,2.58,8.17c0.57,2.66,0.89,5.39,0.97,8.1
		c2.51-1.04,5.13-1.85,7.79-2.42c1.33-0.28,2.69-0.5,4.05-0.67c0,0,0,0,0,0C158.19,63.35,157.26,47.27,157.22,46.64z"/>
	<path class="st7" d="M72.78,20.54c-1.67-1.67-3.49-3.17-5.45-4.5c-2.94-1.99-6.18-3.56-9.64-4.63c-0.62-0.19-1.26-0.35-1.9-0.51
		c-1.63,4.25-4.83,10.87-9.77,13.84c-12.59,7.58-17.92-2.73-17.92-2.73s0.41-4.24,2.32-8.44c-1.67,0.83-3.27,1.78-4.79,2.84
		c1.85,3.38,2.5,6.79,2.5,6.79s-3.3,8.14-13.1,4.66c-3.25,5.49-5.12,11.89-5.12,18.73c0,0,0,0.04,0,0.06
		c-0.06,0.9-1.95,33.79,29.7,65.57c0,0,0,0,0,0c0.46-13.22,3.23-24.07,6.25-32.16c-4.62-1.18-6.69-5.19-6.69-5.19
		S40.53,60.6,50,58.43c2.74-0.63,5.74-0.65,8.5-0.41c2.32-2.56,4.91-4.8,7.68-6.71c-10.51,4.49-15.02-4.22-15.02-4.22
		S52.53,32.84,62,30.67c7.94-1.82,18.14,1.43,18.14,1.43s-2.9,10.93-9.15,16.32c3.94-2.04,8.15-3.47,12.48-4.27
		c-0.44-6.7-2.65-12.91-6.2-18.16C75.95,24.03,74.44,22.21,72.78,20.54z"/>
	<path class="st7" d="M152.54,83.46c0.01,0,0.02,0,0.03,0c0,0,0.01,0,0.01,0c0,0-0.01,0-0.01,0
		C152.56,83.46,152.55,83.46,152.54,83.46z"/>
	<path class="st7" d="M154.88,83.48c-0.09,0-0.17-0.01-0.26-0.01C154.71,83.48,154.8,83.48,154.88,83.48z"/>
	<path class="st7" d="M39.55,117.55c0,0.03,0,0.07,0,0.1C39.55,117.61,39.55,117.58,39.55,117.55z"/>
	<path class="st6" d="M50,58.43c-9.47,2.17-10.84,16.42-10.84,16.42s2.08,4.01,6.69,5.19c3.61-9.68,7.58-15.41,8.39-16.53
		c1.29-1.97,2.72-3.8,4.26-5.49C55.74,57.78,52.74,57.8,50,58.43z"/>
	<path class="st6" d="M118.71,44.5c-5.13-1.18-11.2-0.23-14.86,0.58c4.18,1.19,8.24,3.01,12.07,5.49c3.8,2.46,7.18,5.47,10.05,8.92
		c0.84,1.01,1.62,2.06,2.36,3.14c0.82-0.95,1.21-1.71,1.21-1.71S128.18,46.67,118.71,44.5z"/>
	<path class="st6" d="M62,30.67c-9.47,2.17-10.84,16.42-10.84,16.42s4.51,8.71,15.02,4.22c0.92-0.39,1.88-0.88,2.9-1.49
		c0.67-0.4,1.31-0.88,1.91-1.4c6.26-5.39,9.15-16.32,9.15-16.32S69.94,28.85,62,30.67z"/>
	<path class="st6" d="M25.63,16.4c1.52-1.06,3.11-2.01,4.79-2.84c1.59-3.5,4.22-6.99,8.52-7.97c7.94-1.82,18.14,1.43,18.14,1.43
		s-0.42,1.6-1.3,3.87c0.64,0.16,1.27,0.32,1.9,0.51c3.46,1.08,6.7,2.65,9.64,4.63c1.96,1.32,3.78,2.83,5.45,4.5
		c1.67,1.67,3.17,3.49,4.5,5.45c3.54,5.25,5.76,11.46,6.2,18.16c0.05-0.01,0.09-0.02,0.14-0.03c0.02,0,0.03-0.01,0.05-0.01
		c0.44-6.68,2.66-12.88,6.2-18.12c1.32-1.96,2.83-3.78,4.5-5.45c1.67-1.67,3.49-3.17,5.45-4.5c2.94-1.99,6.18-3.56,9.64-4.63
		c3.46-1.08,7.14-1.66,10.95-1.66c20.34,0,36.83,16.49,36.83,36.83c0,0,0,0.04,0,0.06c0.04,0.63,0.96,16.71-9.11,37.13c0,0,0,0,0,0
		c1.47-0.17,2.95-0.28,4.42-0.31c0.01,0,0.02,0,0.03,0c0,0,0.01,0,0.01,0c0.68-0.01,1.37,0,2.05,0.01c0.09,0,0.17,0.01,0.26,0.01
		c0.67,0.02,1.33,0.06,1.99,0.11c8.66-19.46,8.33-34.79,8.22-37.2l0-0.06c-0.14-24.53-20.14-44.45-44.7-44.45
		c-4.53,0-9,0.68-13.29,2.01c-4.16,1.29-8.09,3.19-11.72,5.63c-2.37,1.6-4.59,3.44-6.6,5.45c-1.92,1.93-3.68,4.04-5.22,6.27
		c-1.54-2.24-3.3-4.35-5.22-6.27c-2.02-2.02-4.24-3.85-6.61-5.46c-3.61-2.44-7.55-4.33-11.71-5.62c-4.29-1.33-8.76-2.01-13.29-2.01
		c-9.97,0-19.19,3.28-26.63,8.82C22.6,11.89,24.39,14.13,25.63,16.4z"/>
	<path class="st6" d="M39.55,117.55c-0.01-0.86-0.01-1.71-0.01-2.56c0-0.05,0-0.11,0-0.16c0.01-0.88,0.03-1.76,0.06-2.62
		c0,0,0,0,0,0C7.95,80.43,9.84,47.54,9.9,46.64c0-0.01,0-0.06,0-0.06c0-6.84,1.87-13.24,5.12-18.73c-0.67-0.24-1.37-0.53-2.1-0.88
		c-1.65-0.8-3.14-2.04-4.45-3.47c-4.04,6.67-6.39,14.47-6.44,22.81c-0.18,3.46-1.22,42.12,37.72,76.88c0,0,0,0,0,0
		c-0.12-1.88-0.19-3.73-0.21-5.54C39.55,117.61,39.55,117.58,39.55,117.55z"/>
	<path class="st6" d="M38.94,5.59c-4.31,0.99-6.93,4.47-8.52,7.97c-1.91,4.21-2.32,8.44-2.32,8.44s5.33,10.31,17.92,2.73
		c4.94-2.97,8.14-9.59,9.77-13.84c0.87-2.27,1.3-3.87,1.3-3.87S46.88,3.77,38.94,5.59z"/>
	<path class="st6" d="M25.63,16.4c-1.24-2.27-3.03-4.52-5.53-5.7c-0.79-0.38-1.66-0.65-2.6-0.78C10.52,8.99,2,12.59,2,12.59
		s2.33,6.38,6.48,10.9c1.31,1.43,2.79,2.67,4.45,3.47c0.73,0.35,1.43,0.65,2.1,0.88c9.8,3.49,13.1-4.66,13.1-4.66
		S27.48,19.78,25.63,16.4z"/>
	<path class="st6" d="M152.58,83.46c0.68-0.01,1.37-0.01,2.05,0.01C153.95,83.46,153.26,83.45,152.58,83.46z"/>
	<path class="st6" d="M156.87,83.59L156.87,83.59c-0.66-0.05-1.33-0.09-1.99-0.11C155.55,83.51,156.21,83.54,156.87,83.59z"/>
	<path class="st6" d="M152.54,83.46c-1.48,0.03-2.95,0.14-4.42,0.31C149.59,83.6,151.06,83.49,152.54,83.46z"/>
	<path class="st6" d="M39.55,117.55c-0.01-0.86-0.01-1.71-0.01-2.56C39.53,115.83,39.54,116.68,39.55,117.55z"/>
	<path class="st6" d="M39.6,112.21c-0.03,0.86-0.05,1.74-0.06,2.62C39.55,113.95,39.57,113.07,39.6,112.21z"/>
	<path class="st6" d="M39.76,123.18c-0.12-1.88-0.19-3.73-0.21-5.54C39.57,119.45,39.65,121.3,39.76,123.18z"/>
	<path class="st6" d="M83.47,44.15c0.05-0.01,0.09-0.02,0.14-0.03C83.56,44.13,83.52,44.14,83.47,44.15L83.47,44.15z"/>
</g>
</svg>
