<?xml version="1.0" encoding="utf-8"?>
<!-- Generator: Adobe Illustrator 24.3.0, SVG Export Plug-In . SVG Version: 6.00 Build 0)  -->
<svg version="1.1" id="Logo" xmlns="http://www.w3.org/2000/svg" xmlns:xlink="http://www.w3.org/1999/xlink" x="0px" y="0px"
	 viewBox="0 0 200 200" style="enable-background:new 0 0 200 200;" xml:space="preserve">
<style type="text/css">
	.st0{fill:#222222;}
	.st1{fill:#FFFFFF;stroke:#222222;stroke-width:3;stroke-linecap:round;stroke-linejoin:round;stroke-miterlimit:10;}
	.st2{fill:none;stroke:#222222;stroke-width:3;stroke-linecap:round;stroke-linejoin:round;stroke-miterlimit:10;}
	.st3{fill:#000222;}
	.st4{fill:#FFFFFF;stroke:#000222;stroke-width:3;stroke-linecap:round;stroke-linejoin:round;stroke-miterlimit:10;}
	.st5{fill:none;stroke:#000222;stroke-width:3;stroke-linecap:round;stroke-linejoin:round;stroke-miterlimit:10;}
	.st6{fill:none;stroke:#000000;stroke-width:3;stroke-linecap:round;stroke-linejoin:round;stroke-miterlimit:10;}
	.st7{fill:none;}
	.st8{fill:#FFFFFF;stroke:#000000;stroke-width:3;stroke-linecap:round;stroke-linejoin:round;stroke-miterlimit:10;}
	.st9{fill:#FFFFFF;}
	.st10{fill:none;stroke:#000000;stroke-width:3;stroke-linecap:round;stroke-linejoin:round;stroke-dasharray:0.9996,14.9946;}
	.st11{fill:#FFFFFF;stroke:#000000;stroke-width:3;stroke-miterlimit:10;}
	.st12{fill:#E9A150;stroke:#222222;stroke-width:3;stroke-linecap:round;stroke-linejoin:round;stroke-miterlimit:10;}
	.st13{fill:#4D7A42;stroke:#222222;stroke-width:3;stroke-linecap:round;stroke-linejoin:round;stroke-miterlimit:10;}
	.st14{fill:#DD9D9D;stroke:#222222;stroke-width:3;stroke-linecap:round;stroke-linejoin:round;stroke-miterlimit:10;}
	.st15{fill:#A7C6D8;stroke:#222222;stroke-width:3;stroke-linecap:round;stroke-linejoin:round;stroke-miterlimit:10;}
	.st16{fill:#B18BCB;stroke:#222222;stroke-width:3;stroke-linecap:round;stroke-linejoin:round;stroke-miterlimit:10;}
	.st17{fill:#F7C705;stroke:#222222;stroke-width:3;stroke-linecap:round;stroke-linejoin:round;stroke-miterlimit:10;}
	.st18{fill:#91B773;stroke:#222222;stroke-width:3;stroke-linecap:round;stroke-linejoin:round;stroke-miterlimit:10;}
</style>
<g>
	<line class="st6" x1="67.25" y1="10.7" x2="67.25" y2="30.3"/>
	<line class="st6" x1="46.59" y1="16.24" x2="56.39" y2="33.21"/>
	<line class="st6" x1="31.46" y1="31.37" x2="48.43" y2="41.16"/>
	<g>
		<path class="st6" d="M111.03,149.08h61.19c2.76,0,5-2.24,5-5v-14.61h-66.19V149.08z"/>
		<path class="st6" d="M172.22,2H93.97c-2.76,0-5,2.24-5,5v14.61h88.25V7C177.22,4.24,174.98,2,172.22,2z"/>
		<path class="st6" d="M88.97,50.92h17.06c2.75,0,4.97,2.22,5,4.96c1.66-0.07,3.32-0.03,4.92,0.19
			c11.11,1.49,14.69,16.78,15.09,18.7v-1.49c0,0,1.95-20.29,15.44-23.38c11.31-2.59,25.84,2.04,25.84,2.04s-4.96,18.73-15.75,25.23
			c-17.93,10.79-25.52-3.89-25.52-3.89v1.49c0.03,0.13,0.04,0.2,0.04,0.2s-0.02,0.04-0.04,0.09v26.91V75.06
			c-0.48,1.08-5.71,11.96-20.01,6v48.41h66.19V21.61H88.97V50.92z"/>
		<path class="st6" d="M156.56,77.17c10.8-6.5,15.75-25.23,15.75-25.23s-14.53-4.63-25.84-2.04c-13.49,3.09-15.44,23.38-15.44,23.38
			s16.82-14.62,26.62-13.61c-9.81-1-26.62,13.61-26.62,13.61S138.63,87.96,156.56,77.17z"/>
		<path class="st6" d="M131.08,74.97c0,0-0.01-0.07-0.04-0.2v0.17C131.06,74.95,131.08,74.97,131.08,74.97z"/>
		<path class="st6" d="M111.03,65.38c8.27,1.27,19.3,9.05,20.01,9.56v-0.17c-0.41-1.92-3.99-17.21-15.09-18.7
			c-1.6-0.22-3.26-0.26-4.92-0.19c0,0.01,0,0.03,0,0.04V65.38z"/>
		<path class="st6" d="M111.03,65.38v5.16v10.52c14.3,5.97,19.53-4.92,20.01-6v-0.12C130.33,74.43,119.3,66.65,111.03,65.38z"/>
		<path class="st6" d="M131.04,75.06c0.02-0.06,0.04-0.09,0.04-0.09s-0.02-0.01-0.04-0.03V75.06z"/>
		<path class="st6" d="M22.78,193c0,2.76,2.24,5,5,5h78.25c2.76,0,5-2.24,5-5v-14.61H22.78V193z"/>
		<path class="st6" d="M111.03,55.88c-0.02-2.74-2.25-4.96-5-4.96H88.97H27.78c-2.76,0-5,2.24-5,5v14.61h66.19h10.38h11.68v-5.16
			v-9.45C111.03,55.91,111.03,55.89,111.03,55.88z"/>
		<polygon class="st6" points="99.35,70.53 88.97,70.53 22.78,70.53 22.78,178.39 111.03,178.39 111.03,149.08 111.03,129.47 
			111.03,81.06 111.03,70.53 		"/>
	</g>
	<g>
		<path class="st6" d="M63.09,122.35c0,0-5.28-1.86-7.18-0.3"/>
		<path class="st6" d="M63.19,123.63c0,0-3.22-0.45-4.26,0.51"/>
		<path class="st6" d="M70.72,122.35c0,0,5.28-1.86,7.18-0.3"/>
		<path class="st6" d="M70.63,123.63c0,0,3.22-0.45,4.26,0.51"/>
		<polygon class="st7" points="95.75,128.24 84.08,128.24 84.08,128.24 		"/>
		<polygon class="st7" points="51.22,120.68 29.1,120.68 51.22,120.68 		"/>
		<polygon class="st7" points="63.12,128.25 63.12,128.25 63.12,128.25 62.55,128.25 62.55,128.25 		"/>
		<path class="st6" d="M63.12,128.25h-0.57l-7.66,5.84l-1.34-4.46l-5.23-0.37l1.4-1.01l-10.98,0h-6.94
			c4.34,9.57,13.24,21.12,31.31,30.23L63.12,128.25L63.12,128.25z"/>
		<path class="st6" d="M106.11,110.01l0-0.03c-0.07-11.8-9.68-21.37-21.49-21.37c-2.18,0-4.33,0.33-6.39,0.97
			c-2,0.62-3.89,1.53-5.63,2.71c-0.66,0.45-1.29,0.94-1.9,1.46l0,24.14c3.38-2.26,9.06-5.01,11.87-1.02c1.26,1.8,0.7,2.81,0.04,3.81
			l22.12,0l0,0l0,0C106.24,114.94,106.15,110.85,106.11,110.01z"/>
		<path class="st6" d="M84.08,128.24l1.4,1.01l-5.23,0.37l-1.33,4.46l-7.66-5.84h-0.57l0,30.23c18.07-9.11,26.96-20.66,31.3-30.23
			h-6.25L84.08,128.24z"/>
		<path class="st6" d="M51.26,116.87c2.8-3.99,8.48-1.25,11.87,1.01l0-24.14c-0.61-0.52-1.24-1.02-1.91-1.47
			c-1.74-1.17-3.63-2.08-5.63-2.71c-2.06-0.64-4.21-0.97-6.39-0.97c-11.81,0-21.42,9.57-21.49,21.36c-0.04,0.74-0.15,4.88,1.4,10.71
			l22.12,0C50.56,119.68,49.99,118.67,51.26,116.87z"/>
		<path class="st6" d="M70.69,128.25h0.57l-1.18-0.9c-0.41,0.48-1.02,0.8-1.7,0.8l-2.97,0c-0.68,0-1.29-0.31-1.7-0.8l-1.18,0.9h0.57
			v0l0,30.22l0,0l0,0c0.72,0.36,1.42,0.72,2.16,1.08l1.62,0.77l1.62-0.77c0.74-0.35,1.45-0.72,2.17-1.08l0,0l0,0L70.69,128.25z"/>
		<polygon class="st6" points="63.12,128.25 63.13,158.47 63.13,158.47 		"/>
		<polygon class="st6" points="71.27,128.25 71.27,128.25 70.69,128.25 70.69,158.47 70.69,158.47 70.69,128.25 		"/>
		<path class="st6" d="M52.17,126.49c-0.22-1.07,0.11-2,0-3.7c-0.06-0.84-0.52-1.47-0.95-2.11l-22.12,0
			c0.61,2.29,1.48,4.85,2.72,7.57h6.94l10.98,0L52.17,126.49z"/>
		<polygon class="st6" points="49.74,128.25 38.76,128.25 49.74,128.25 		"/>
		<path class="st6" d="M63.7,118.28c0.41-0.51,1.03-0.84,1.73-0.84h2.97c0.7,0,1.32,0.33,1.73,0.84c0.18-0.13,0.37-0.26,0.57-0.39
			l0-24.14l0,0l0,0c-0.44,0.37-0.87,0.75-1.27,1.16c-0.93,0.93-1.77,1.94-2.51,3.02c-0.74-1.08-1.59-2.09-2.51-3.02
			c-0.4-0.4-0.84-0.78-1.27-1.16l0,24.14C63.32,118.02,63.51,118.15,63.7,118.28z"/>
		<rect x="70.69" y="93.75" class="st6" width="0" height="24.14"/>
		<path class="st6" d="M81.65,122.79c-0.11,1.7,0.22,2.63,0,3.7l2.44,1.76l11.67,0H102h0h0c1.23-2.72,2.11-5.28,2.72-7.57l-22.12,0
			C82.17,121.32,81.7,121.95,81.65,122.79z"/>
		<polygon class="st6" points="95.75,128.24 102,128.24 102,128.24 		"/>
		<path class="st6" d="M63.67,127.28c-0.7,0.33-1.52,0.67-2.39,0.97c0,0,0,0,0,0c-3,1.04-6.59,1.61-8.21,0c0,0,0,0,0,0
			c-0.17-0.17-0.33-0.36-0.45-0.58c-0.24-0.43-0.38-0.81-0.45-1.17l-2.43,1.76h0l-1.4,1.01l5.23,0.37l1.34,4.46l7.66-5.84h0
			l1.18-0.9C63.71,127.32,63.69,127.3,63.67,127.28z"/>
		<path class="st6" d="M63.19,123.47l0-3.79c0-0.53,0.2-1.01,0.51-1.4c-0.18-0.13-0.37-0.26-0.57-0.39
			c-3.39-2.26-9.06-5.01-11.87-1.01c-1.26,1.8-0.7,2.81-0.04,3.81c0,0,0,0,0,0c0.43,0.64,0.89,1.28,0.95,2.11
			c0.11,1.7-0.22,2.63,0,3.7c0.07,0.36,0.21,0.74,0.45,1.17c0.12,0.22,0.28,0.41,0.45,0.58c0,0,0,0,0,0c1.62,1.61,5.21,1.04,8.21,0
			c0,0,0,0,0,0c0.87-0.3,1.69-0.64,2.39-0.97c-0.3-0.38-0.48-0.85-0.48-1.37L63.19,123.47z"/>
		<path class="st6" d="M84.08,128.24L84.08,128.24l-2.44-1.76c-0.07,0.36-0.21,0.74-0.45,1.17c-0.12,0.22-0.28,0.41-0.45,0.58
			c-1.62,1.61-5.21,1.04-8.21,0c0,0,0,0,0,0c-0.87-0.3-1.68-0.64-2.39-0.97c-0.02,0.02-0.04,0.05-0.06,0.07l1.18,0.9h0l7.66,5.84
			l1.33-4.46l5.23-0.37L84.08,128.24z"/>
		<path class="st6" d="M82.56,116.87c-2.8-3.99-8.48-1.25-11.87,1.02c-0.2,0.13-0.39,0.26-0.57,0.39c0.31,0.39,0.51,0.87,0.51,1.4
			l0,3.79l0,2.44c0,0.52-0.18,0.99-0.48,1.37c0.7,0.33,1.52,0.67,2.39,0.97c0,0,0,0,0,0c3,1.04,6.59,1.61,8.21,0
			c0.17-0.17,0.33-0.36,0.45-0.58c0.24-0.43,0.38-0.81,0.45-1.17c0.22-1.07-0.11-2,0-3.7c0.06-0.84,0.52-1.47,0.95-2.11c0,0,0,0,0,0
			C83.26,119.68,83.82,118.67,82.56,116.87z"/>
		<path class="st6" d="M70.63,125.91l0-2.44l0-3.79c0-0.53-0.2-1.02-0.51-1.4c-0.41-0.51-1.03-0.84-1.73-0.84h-2.97
			c-0.7,0-1.32,0.33-1.73,0.84c-0.31,0.39-0.51,0.87-0.51,1.4l0,3.79l0,2.44c0,0.52,0.18,0.99,0.48,1.37
			c0.02,0.02,0.04,0.05,0.06,0.07c0.41,0.48,1.02,0.8,1.7,0.8l2.97,0c0.68,0,1.29-0.31,1.7-0.8c0.02-0.02,0.04-0.05,0.06-0.07
			C70.44,126.9,70.63,126.42,70.63,125.91z"/>
	</g>
	<path d="M167.41,112.59C167.41,112.59,167.41,112.58,167.41,112.59c0-1.51-1.22-2.73-2.72-2.73c-0.28,0-0.55,0.04-0.81,0.12
		c-0.26,0.08-0.5,0.2-0.71,0.34c-0.14,0.1-0.28,0.21-0.4,0.33c-0.12,0.12-0.23,0.26-0.33,0.4c-0.29,0.43-0.47,0.96-0.47,1.52
		c0-0.56-0.17-1.09-0.47-1.52c-0.1-0.14-0.21-0.28-0.33-0.4s-0.26-0.23-0.4-0.33c-0.22-0.15-0.46-0.26-0.71-0.34
		c-0.26-0.08-0.53-0.12-0.81-0.12c-1.5,0-2.72,1.22-2.72,2.72c0,0,0,0,0,0c-0.01,0.09-0.25,4.38,5.45,7.08
		C167.66,116.96,167.41,112.68,167.41,112.59z"/>
	<path d="M159.78,102.67C159.78,102.67,159.78,102.67,159.78,102.67c0-0.91-0.73-1.64-1.63-1.64c-0.17,0-0.33,0.03-0.49,0.07
		c-0.15,0.05-0.3,0.12-0.43,0.21c-0.09,0.06-0.17,0.13-0.24,0.2c-0.07,0.07-0.14,0.15-0.2,0.24c-0.18,0.26-0.28,0.58-0.28,0.91
		c0-0.34-0.1-0.65-0.28-0.91c-0.06-0.09-0.13-0.17-0.2-0.24s-0.15-0.14-0.24-0.2c-0.13-0.09-0.27-0.16-0.43-0.21
		c-0.15-0.05-0.32-0.07-0.49-0.07c-0.9,0-1.63,0.73-1.63,1.63c0,0,0,0,0,0c0,0.05-0.15,2.63,3.27,4.25
		C159.93,105.3,159.78,102.72,159.78,102.67z"/>
	<path d="M167.41,99.62C167.41,99.62,167.41,99.62,167.41,99.62c0-0.3-0.24-0.55-0.54-0.55c-0.06,0-0.11,0.01-0.16,0.02
		c-0.05,0.02-0.1,0.04-0.14,0.07c-0.03,0.02-0.06,0.04-0.08,0.07c-0.02,0.02-0.05,0.05-0.07,0.08c-0.06,0.09-0.09,0.19-0.09,0.3
		c0-0.11-0.03-0.22-0.09-0.3c-0.02-0.03-0.04-0.06-0.07-0.08c-0.02-0.02-0.05-0.05-0.08-0.07c-0.04-0.03-0.09-0.05-0.14-0.07
		c-0.05-0.02-0.11-0.02-0.16-0.02c-0.3,0-0.54,0.24-0.54,0.54c0,0,0,0,0,0c0,0.02-0.05,0.88,1.09,1.42
		C167.46,100.49,167.41,99.64,167.41,99.62z"/>
</g>
</svg>
