<?xml version="1.0" encoding="utf-8"?>
<!-- Generator: Adobe Illustrator 24.3.0, SVG Export Plug-In . SVG Version: 6.00 Build 0)  -->
<svg version="1.1" id="Logo" xmlns="http://www.w3.org/2000/svg" xmlns:xlink="http://www.w3.org/1999/xlink" x="0px" y="0px"
	 viewBox="0 0 200 200" style="enable-background:new 0 0 200 200;" xml:space="preserve">
<style type="text/css">
	.st0{fill:#222222;}
	.st1{fill:#FFFFFF;stroke:#222222;stroke-width:3;stroke-linecap:round;stroke-linejoin:round;stroke-miterlimit:10;}
	.st2{fill:none;stroke:#222222;stroke-width:3;stroke-linecap:round;stroke-linejoin:round;stroke-miterlimit:10;}
	.st3{fill:#000222;}
	.st4{fill:#FFFFFF;stroke:#000222;stroke-width:3;stroke-linecap:round;stroke-linejoin:round;stroke-miterlimit:10;}
	.st5{fill:none;stroke:#000222;stroke-width:3;stroke-linecap:round;stroke-linejoin:round;stroke-miterlimit:10;}
	.st6{fill:none;stroke:#000000;stroke-width:3;stroke-linecap:round;stroke-linejoin:round;stroke-miterlimit:10;}
	.st7{fill:none;}
	.st8{fill:#FFFFFF;stroke:#000000;stroke-width:3;stroke-linecap:round;stroke-linejoin:round;stroke-miterlimit:10;}
	.st9{fill:#FFFFFF;}
	.st10{fill:none;stroke:#000000;stroke-width:3;stroke-linecap:round;stroke-linejoin:round;stroke-dasharray:0.9996,14.9946;}
	.st11{fill:#FFFFFF;stroke:#000000;stroke-width:3;stroke-miterlimit:10;}
	.st12{fill:#E9A150;stroke:#222222;stroke-width:3;stroke-linecap:round;stroke-linejoin:round;stroke-miterlimit:10;}
	.st13{fill:#4D7A42;stroke:#222222;stroke-width:3;stroke-linecap:round;stroke-linejoin:round;stroke-miterlimit:10;}
	.st14{fill:#DD9D9D;stroke:#222222;stroke-width:3;stroke-linecap:round;stroke-linejoin:round;stroke-miterlimit:10;}
	.st15{fill:#A7C6D8;stroke:#222222;stroke-width:3;stroke-linecap:round;stroke-linejoin:round;stroke-miterlimit:10;}
	.st16{fill:#B18BCB;stroke:#222222;stroke-width:3;stroke-linecap:round;stroke-linejoin:round;stroke-miterlimit:10;}
	.st17{fill:#F7C705;stroke:#222222;stroke-width:3;stroke-linecap:round;stroke-linejoin:round;stroke-miterlimit:10;}
	.st18{fill:#91B773;stroke:#222222;stroke-width:3;stroke-linecap:round;stroke-linejoin:round;stroke-miterlimit:10;}
</style>
<path class="st6" d="M13.9,181.45c12.46,6.02,16.56-4.11,16.56-4.11s-2.51-13.24-11.58-14.46C11.28,161.87,2,165.8,2,165.8
	S6.4,177.82,13.9,181.45z"/>
<path class="st6" d="M30.46,177.34c0,0-11.95-8.6-18.35-7.35"/>
<line class="st6" x1="30.43" y1="176.05" x2="30.43" y2="198"/>
<path class="st6" d="M185.95,179.03c-13.72,8.26-19.52-2.98-19.52-2.98s1.49-15.52,11.81-17.88c8.65-1.98,19.76,1.56,19.76,1.56
	S194.21,174.05,185.95,179.03z"/>
<path class="st6" d="M166.43,176.05c0,0,12.86-11.18,20.36-10.41"/>
<path class="st6" d="M166.46,177.34c0,0-11.95-8.6-18.35-7.35"/>
<line class="st6" x1="166.43" y1="176.05" x2="166.43" y2="198"/>
<g>
	<path class="st7" d="M154.88,162.89c-7.6-1.02-16.88,2.91-16.88,2.91s1.07,2.91,3.04,6.3c5.05-2.6,9.83-5.66,14.27-9.13
		C155.17,162.94,155.03,162.91,154.88,162.89z"/>
	<path class="st6" d="M39.96,158.97c-8.26,3.93-9.53,17.08-9.53,17.08c0,0,10.49-9.11,18.04-10.32"/>
	<path class="st6" d="M48.47,165.73c-7.56,1.21-18.04,10.32-18.04,10.32l0,0c0,0,5.8,11.23,19.52,2.98c2.97-1.79,5.36-4.79,7.21-7.9
		"/>
	<path class="st6" d="M141.04,172.1c2.04,3.5,5.05,7.51,8.86,9.35c12.46,6.02,16.56-4.11,16.56-4.11s-2.43-12.81-11.15-14.38"/>
	<path class="st7" d="M154.88,162.89c0.15,0.02,0.28,0.05,0.43,0.08c21.11-16.48,34.71-42.17,34.71-70.96c0-49.63-40.37-90-90-90
		s-90,40.37-90,90c0,26.57,11.57,50.48,29.94,66.97c0.71-0.34,1.46-0.61,2.28-0.8c8.65-1.98,19.76,1.56,19.76,1.56
		s-1.56,5.87-4.84,11.4C69.91,178.06,84.51,182,100.02,182c14.77,0,28.71-3.58,41.02-9.9c-1.97-3.39-3.04-6.3-3.04-6.3
		S147.28,161.87,154.88,162.89z"/>
</g>
<path d="M103.06,177.45c-0.8,0-1.47-0.64-1.5-1.44c-0.03-0.83,0.62-1.52,1.44-1.55c0.33-0.01,0.66-0.03,0.98-0.04
	c0.84-0.02,1.53,0.6,1.57,1.43c0.04,0.83-0.6,1.53-1.43,1.57c-0.34,0.02-0.68,0.03-1.01,0.04
	C103.1,177.45,103.08,177.45,103.06,177.45z M88.11,176.66c-0.07,0-0.14,0-0.21-0.02c-0.34-0.05-0.67-0.1-1.01-0.15
	c-0.82-0.13-1.38-0.89-1.25-1.71c0.13-0.82,0.89-1.38,1.71-1.25c0.32,0.05,0.65,0.1,0.97,0.14c0.82,0.12,1.39,0.88,1.27,1.7
	C89.49,176.12,88.85,176.66,88.11,176.66z M118.89,175.37c-0.68,0-1.3-0.47-1.46-1.17c-0.18-0.81,0.32-1.61,1.13-1.8
	c0.32-0.07,0.64-0.15,0.96-0.22c0.8-0.2,1.62,0.3,1.81,1.11c0.19,0.81-0.3,1.62-1.11,1.81c-0.33,0.08-0.66,0.16-0.99,0.23
	C119.11,175.36,119,175.37,118.89,175.37z M72.59,172.92c-0.16,0-0.33-0.03-0.49-0.08c-0.32-0.11-0.64-0.22-0.96-0.34
	c-0.78-0.28-1.19-1.14-0.91-1.92c0.28-0.78,1.14-1.19,1.92-0.91c0.31,0.11,0.62,0.22,0.93,0.33c0.78,0.27,1.2,1.12,0.93,1.91
	C73.79,172.53,73.21,172.92,72.59,172.92z M134.04,170.33c-0.58,0-1.12-0.33-1.37-0.89c-0.34-0.76,0.01-1.64,0.76-1.98
	c0.3-0.13,0.59-0.27,0.89-0.4c0.75-0.34,1.64-0.01,1.99,0.74c0.34,0.75,0.01,1.64-0.74,1.99c-0.31,0.14-0.62,0.28-0.92,0.42
	C134.45,170.29,134.24,170.33,134.04,170.33z M58.06,166.29c-0.25,0-0.51-0.06-0.75-0.2c-0.29-0.17-0.59-0.34-0.88-0.52
	c-0.71-0.42-0.95-1.34-0.52-2.06c0.42-0.71,1.34-0.95,2.06-0.52c0.28,0.17,0.56,0.33,0.85,0.5c0.72,0.41,0.96,1.33,0.55,2.05
	C59.08,166.02,58.58,166.29,58.06,166.29z M147.95,162.5c-0.47,0-0.94-0.22-1.23-0.64c-0.47-0.68-0.31-1.61,0.37-2.09
	c0.27-0.19,0.53-0.37,0.8-0.56c0.67-0.48,1.61-0.33,2.09,0.35s0.33,1.61-0.35,2.09c-0.28,0.2-0.55,0.39-0.83,0.59
	C148.54,162.41,148.24,162.5,147.95,162.5z M45.05,157.02c-0.35,0-0.7-0.12-0.98-0.37c-0.26-0.22-0.51-0.45-0.77-0.67
	c-0.62-0.55-0.68-1.5-0.13-2.12c0.55-0.62,1.5-0.68,2.12-0.13c0.25,0.22,0.49,0.43,0.74,0.65c0.63,0.54,0.69,1.49,0.15,2.12
	C45.89,156.85,45.47,157.02,45.05,157.02z M160.13,152.18c-0.38,0-0.76-0.14-1.05-0.43c-0.59-0.58-0.6-1.53-0.02-2.12
	c0.23-0.23,0.46-0.47,0.68-0.71c0.57-0.6,1.52-0.62,2.12-0.05c0.6,0.57,0.62,1.52,0.05,2.12c-0.23,0.25-0.47,0.49-0.71,0.73
	C160.91,152.03,160.52,152.18,160.13,152.18z M34.03,145.47c-0.44,0-0.88-0.2-1.18-0.57c-0.21-0.27-0.42-0.53-0.62-0.8
	c-0.51-0.66-0.38-1.6,0.27-2.1c0.66-0.5,1.6-0.38,2.1,0.27c0.2,0.26,0.4,0.52,0.6,0.77c0.51,0.65,0.4,1.59-0.25,2.11
	C34.68,145.37,34.35,145.47,34.03,145.47z M170.15,139.75c-0.28,0-0.57-0.08-0.83-0.25c-0.69-0.46-0.88-1.39-0.42-2.08
	c0.18-0.27,0.36-0.55,0.54-0.82c0.45-0.7,1.38-0.9,2.07-0.45c0.7,0.45,0.9,1.38,0.45,2.07c-0.18,0.29-0.37,0.57-0.56,0.85
	C171.11,139.51,170.64,139.75,170.15,139.75z M25.37,132.06c-0.54,0-1.07-0.3-1.33-0.81c-0.16-0.3-0.31-0.6-0.46-0.9
	c-0.37-0.74-0.08-1.64,0.66-2.01c0.74-0.37,1.64-0.08,2.01,0.66c0.15,0.29,0.3,0.58,0.45,0.87c0.38,0.74,0.09,1.64-0.64,2.02
	C25.84,132,25.61,132.06,25.37,132.06z M177.65,125.65c-0.19,0-0.39-0.04-0.57-0.11c-0.77-0.32-1.13-1.19-0.81-1.96
	c0.13-0.3,0.25-0.61,0.37-0.91c0.31-0.77,1.18-1.14,1.95-0.83c0.77,0.31,1.14,1.18,0.83,1.95c-0.13,0.32-0.25,0.63-0.38,0.94
	C178.8,125.3,178.24,125.65,177.65,125.65z M19.42,117.25c-0.65,0-1.25-0.42-1.44-1.08c-0.1-0.32-0.19-0.65-0.28-0.98
	c-0.22-0.8,0.24-1.63,1.04-1.85c0.8-0.22,1.63,0.24,1.85,1.04c0.09,0.32,0.18,0.63,0.27,0.94c0.23,0.79-0.22,1.63-1.02,1.86
	C19.71,117.23,19.56,117.25,19.42,117.25z M182.33,110.37c-0.1,0-0.2-0.01-0.3-0.03c-0.81-0.17-1.33-0.96-1.17-1.77
	c0.07-0.32,0.13-0.64,0.19-0.96c0.16-0.81,0.94-1.35,1.75-1.19c0.81,0.16,1.35,0.94,1.19,1.75c-0.06,0.33-0.13,0.67-0.2,1
	C183.65,109.89,183.02,110.37,182.33,110.37z M16.4,101.57c-0.76,0-1.42-0.58-1.49-1.36c-0.03-0.34-0.06-0.68-0.09-1.02
	c-0.07-0.83,0.55-1.55,1.37-1.62c0.84-0.06,1.55,0.55,1.62,1.37c0.03,0.33,0.06,0.65,0.09,0.98c0.08,0.82-0.53,1.56-1.35,1.64
	C16.5,101.57,16.45,101.57,16.4,101.57z M184.01,94.5c-0.01,0-0.01,0-0.02,0c-0.83-0.01-1.49-0.69-1.48-1.52
	c0-0.33,0.01-0.65,0.01-0.98l0-0.18c0-0.83,0.67-1.5,1.5-1.5s1.5,0.67,1.5,1.5l0,0.17c0,0.35,0,0.69-0.01,1.03
	C185.5,93.84,184.83,94.5,184.01,94.5z M16.39,85.61c-0.05,0-0.09,0-0.14-0.01c-0.83-0.08-1.43-0.81-1.36-1.63
	c0.03-0.34,0.06-0.68,0.1-1.01c0.09-0.82,0.83-1.42,1.65-1.33c0.82,0.09,1.42,0.83,1.33,1.65c-0.03,0.32-0.07,0.65-0.1,0.97
	C17.81,85.02,17.15,85.61,16.39,85.61z M182.67,78.41c-0.71,0-1.34-0.51-1.47-1.23c-0.06-0.32-0.12-0.64-0.18-0.96
	c-0.16-0.81,0.37-1.6,1.19-1.76c0.82-0.16,1.6,0.37,1.76,1.19c0.06,0.33,0.13,0.67,0.19,1c0.15,0.81-0.4,1.6-1.21,1.74
	C182.84,78.4,182.75,78.41,182.67,78.41z M19.37,69.92c-0.14,0-0.28-0.02-0.42-0.06c-0.8-0.23-1.25-1.06-1.02-1.86
	c0.1-0.33,0.19-0.65,0.29-0.98c0.24-0.79,1.08-1.24,1.87-1c0.79,0.24,1.24,1.08,1,1.87c-0.1,0.31-0.19,0.62-0.28,0.94
	C20.62,69.5,20.02,69.92,19.37,69.92z M178.33,63.05c-0.6,0-1.17-0.36-1.4-0.96c-0.12-0.31-0.24-0.61-0.36-0.91
	c-0.31-0.77,0.06-1.64,0.83-1.95c0.77-0.31,1.64,0.06,1.95,0.83c0.13,0.31,0.25,0.63,0.38,0.95c0.3,0.77-0.08,1.64-0.85,1.94
	C178.7,63.01,178.51,63.05,178.33,63.05z M25.3,55.09c-0.23,0-0.47-0.05-0.69-0.17c-0.74-0.38-1.03-1.28-0.65-2.02
	c0.16-0.3,0.31-0.6,0.47-0.9c0.39-0.73,1.29-1.01,2.03-0.62c0.73,0.39,1.01,1.3,0.62,2.03c-0.15,0.29-0.31,0.58-0.46,0.87
	C26.36,54.8,25.84,55.09,25.3,55.09z M171.15,48.79c-0.5,0-0.99-0.25-1.27-0.7c-0.17-0.28-0.35-0.55-0.53-0.83
	c-0.45-0.7-0.25-1.62,0.44-2.07c0.69-0.45,1.62-0.25,2.07,0.44c0.18,0.28,0.37,0.57,0.55,0.86c0.44,0.7,0.23,1.63-0.47,2.07
	C171.7,48.72,171.42,48.79,171.15,48.79z M33.93,41.65c-0.32,0-0.65-0.1-0.93-0.32c-0.65-0.51-0.76-1.45-0.25-2.11
	c0.21-0.27,0.42-0.53,0.63-0.79c0.52-0.65,1.46-0.75,2.11-0.23c0.65,0.52,0.75,1.46,0.23,2.11c-0.21,0.26-0.41,0.51-0.61,0.77
	C34.81,41.46,34.37,41.65,33.93,41.65z M161.4,36.15c-0.4,0-0.8-0.16-1.1-0.48c-0.22-0.24-0.45-0.48-0.67-0.71
	c-0.57-0.6-0.55-1.55,0.05-2.12c0.6-0.57,1.55-0.55,2.12,0.05c0.23,0.25,0.47,0.49,0.7,0.74c0.57,0.61,0.53,1.55-0.07,2.12
	C162.13,36.02,161.76,36.15,161.4,36.15z M44.93,30.08c-0.42,0-0.84-0.17-1.13-0.52c-0.54-0.62-0.48-1.57,0.15-2.12
	c0.26-0.22,0.51-0.44,0.77-0.66c0.63-0.54,1.58-0.46,2.11,0.17c0.54,0.63,0.46,1.58-0.17,2.11c-0.25,0.21-0.5,0.43-0.74,0.64
	C45.63,29.96,45.28,30.08,44.93,30.08z M57.92,20.8c-0.52,0-1.02-0.27-1.3-0.75c-0.42-0.72-0.17-1.63,0.54-2.05
	c0.29-0.17,0.59-0.34,0.88-0.5c0.72-0.41,1.64-0.15,2.04,0.57c0.41,0.72,0.15,1.64-0.57,2.04c-0.28,0.16-0.57,0.32-0.85,0.49
	C58.43,20.73,58.17,20.8,57.92,20.8z M135.7,17.43c-0.21,0-0.43-0.05-0.64-0.14c-0.3-0.14-0.59-0.28-0.89-0.41
	c-0.75-0.34-1.09-1.23-0.74-1.99c0.34-0.75,1.23-1.09,1.99-0.74c0.31,0.14,0.62,0.28,0.93,0.43c0.75,0.35,1.07,1.25,0.72,2
	C136.8,17.11,136.26,17.43,135.7,17.43z M72.42,14.14c-0.62,0-1.2-0.39-1.42-1.01c-0.27-0.78,0.14-1.64,0.92-1.91
	c0.32-0.11,0.64-0.22,0.96-0.33c0.79-0.26,1.64,0.16,1.9,0.95c0.26,0.79-0.16,1.64-0.95,1.9c-0.31,0.1-0.62,0.21-0.93,0.32
	C72.75,14.11,72.58,14.14,72.42,14.14z M120.66,12.05c-0.12,0-0.25-0.02-0.37-0.05c-0.32-0.08-0.63-0.16-0.95-0.23
	c-0.81-0.19-1.3-1-1.11-1.81c0.19-0.81,1-1.3,1.81-1.11c0.33,0.08,0.66,0.16,0.99,0.24c0.8,0.2,1.29,1.02,1.08,1.82
	C121.94,11.6,121.33,12.05,120.66,12.05z M87.93,10.36c-0.73,0-1.38-0.54-1.48-1.29c-0.12-0.82,0.45-1.58,1.27-1.7
	c0.33-0.05,0.67-0.09,1.01-0.14c0.82-0.11,1.58,0.47,1.68,1.29s-0.47,1.58-1.29,1.68c-0.33,0.04-0.65,0.09-0.97,0.13
	C88.07,10.36,88,10.36,87.93,10.36z M104.88,9.64c-0.03,0-0.06,0-0.09,0c-0.33-0.02-0.65-0.04-0.98-0.05
	c-0.83-0.04-1.47-0.74-1.43-1.57c0.04-0.83,0.72-1.47,1.57-1.43c0.34,0.02,0.68,0.03,1.02,0.05c0.83,0.05,1.46,0.76,1.41,1.58
	C106.33,9.02,105.67,9.64,104.88,9.64z"/>
<path class="st6" d="M95.38,96.03c0,0,25.72-22.36,40.72-20.83"/>
<path class="st6" d="M62.32,106.84c24.91,12.04,33.13-8.21,33.13-8.21s-5.02-26.47-23.15-28.91c-15.2-2.04-33.77,5.82-33.77,5.82
	S47.31,99.59,62.32,106.84z"/>
<path class="st6" d="M95.44,98.62c0,0-23.91-17.21-36.7-14.7"/>
<line class="st6" x1="95.38" y1="96.03" x2="95.38" y2="139.94"/>
<g>
	<path class="st6" d="M122.05,72c-0.01,0-0.02,0-0.03,0c-1.78-0.01-3.46-0.91-4.56-2.43l-4.85-6.73
		c-14.88,8.84-17.23,33.19-17.23,33.19s11.61,22.47,39.04,5.96c16.52-9.94,24.1-38.6,24.1-38.6s-11.4-3.63-24.22-4.24l-7.7,10.47
		C125.49,71.12,123.82,72,122.05,72z"/>
	<path class="st6" d="M167.81,3.39c-2.52-2.19-6.19-1.75-8.2,0.99L122.1,55.42l-11.67-16.21c-1.99-2.76-5.66-3.24-8.19-1.08
		c-2.53,2.17-2.98,6.16-0.99,8.92l11.37,15.78l4.85,6.73c1.1,1.53,2.78,2.42,4.56,2.43c0.01,0,0.02,0,0.03,0
		c1.77,0,3.45-0.88,4.55-2.38l7.7-10.47l34.42-46.82C170.73,9.59,170.33,5.59,167.81,3.39z"/>
</g>
</svg>
