<?xml version="1.0" encoding="utf-8"?>
<!-- Generator: Adobe Illustrator 24.3.0, SVG Export Plug-In . SVG Version: 6.00 Build 0)  -->
<svg version="1.1" id="Logo" xmlns="http://www.w3.org/2000/svg" xmlns:xlink="http://www.w3.org/1999/xlink" x="0px" y="0px"
	 viewBox="0 0 200 200" style="enable-background:new 0 0 200 200;" xml:space="preserve">
<style type="text/css">
	.st0{fill:#222222;}
	.st1{fill:#FFFFFF;stroke:#222222;stroke-width:3;stroke-linecap:round;stroke-linejoin:round;stroke-miterlimit:10;}
	.st2{fill:none;stroke:#222222;stroke-width:3;stroke-linecap:round;stroke-linejoin:round;stroke-miterlimit:10;}
	.st3{fill:#000222;}
	.st4{fill:#FFFFFF;stroke:#000222;stroke-width:3;stroke-linecap:round;stroke-linejoin:round;stroke-miterlimit:10;}
	.st5{fill:none;stroke:#000222;stroke-width:3;stroke-linecap:round;stroke-linejoin:round;stroke-miterlimit:10;}
	.st6{fill:none;stroke:#000000;stroke-width:3;stroke-linecap:round;stroke-linejoin:round;stroke-miterlimit:10;}
	.st7{fill:none;}
	.st8{fill:#FFFFFF;stroke:#000000;stroke-width:3;stroke-linecap:round;stroke-linejoin:round;stroke-miterlimit:10;}
	.st9{fill:#FFFFFF;}
	.st10{fill:none;stroke:#000000;stroke-width:3;stroke-linecap:round;stroke-linejoin:round;stroke-dasharray:0.9996,14.9946;}
	.st11{fill:#FFFFFF;stroke:#000000;stroke-width:3;stroke-miterlimit:10;}
	.st12{fill:#E9A150;stroke:#222222;stroke-width:3;stroke-linecap:round;stroke-linejoin:round;stroke-miterlimit:10;}
	.st13{fill:#4D7A42;stroke:#222222;stroke-width:3;stroke-linecap:round;stroke-linejoin:round;stroke-miterlimit:10;}
	.st14{fill:#DD9D9D;stroke:#222222;stroke-width:3;stroke-linecap:round;stroke-linejoin:round;stroke-miterlimit:10;}
	.st15{fill:#A7C6D8;stroke:#222222;stroke-width:3;stroke-linecap:round;stroke-linejoin:round;stroke-miterlimit:10;}
	.st16{fill:#B18BCB;stroke:#222222;stroke-width:3;stroke-linecap:round;stroke-linejoin:round;stroke-miterlimit:10;}
	.st17{fill:#F7C705;stroke:#222222;stroke-width:3;stroke-linecap:round;stroke-linejoin:round;stroke-miterlimit:10;}
	.st18{fill:#91B773;stroke:#222222;stroke-width:3;stroke-linecap:round;stroke-linejoin:round;stroke-miterlimit:10;}
</style>
<g>
	<path class="st6" d="M2,193c0,2.75,2.25,5,5,5h186c2.75,0,5-2.25,5-5V60.8H2V193z M156.35,77.95h24.5v24.5h-24.5V77.95z
		 M156.35,117.15h24.5v24.5h-24.5V117.15z M162.17,161.75c4.16,0.56,5.51,6.29,5.66,7.01v-0.56c0,0,0.73-7.6,5.79-8.76
		c4.24-0.97,9.68,0.77,9.68,0.77s-1.86,7.02-5.9,9.46c-6.72,4.05-9.56-1.46-9.56-1.46v0.56c0.01,0.05,0.02,0.07,0.02,0.07
		s-0.01,0.02-0.02,0.03v10.09v-10.09c-0.15,0.35-2.24,4.81-8.1,1.98c-3.68-1.78-5.83-7.67-5.83-7.67S158.45,161.25,162.17,161.75z
		 M122.05,77.95h24.5v24.5h-24.5V77.95z M122.05,117.15h24.5v24.5h-24.5V117.15z M122.05,156.35h24.5v24.5h-24.5V156.35z
		 M87.75,77.95h24.5v24.5h-24.5V77.95z M87.75,117.15h24.5v24.5h-24.5V117.15z M87.75,156.35h24.5v24.5h-24.5V156.35z M53.45,77.95
		h24.5v24.5h-24.5V77.95z M53.45,117.15h24.5v24.5h-24.5V117.15z M53.45,156.35h24.5v24.5h-24.5V156.35z M19.15,77.95h24.5v24.5
		h-24.5V77.95z M19.15,117.15h24.5v24.5h-24.5V117.15z M19.15,156.35h24.5v24.5h-24.5V156.35z"/>
	<path class="st6" d="M193,11.8h-32.68v29.3c0,2.75-2.25,5-5,5h-9.6c-2.75,0-5-2.25-5-5V11.8H59.28v29.3c0,2.75-2.25,5-5,5h-9.6
		c-2.75,0-5-2.25-5-5V11.8H7c-2.75,0-5,2.25-5,5v44h196v-44C198,14.05,195.75,11.8,193,11.8z"/>
	<path class="st6" d="M54.28,2h-9.6c-2.75,0-5,2.25-5,5v4.8v29.3c0,2.75,2.25,5,5,5h9.6c2.75,0,5-2.25,5-5V11.8V7
		C59.28,4.25,57.03,2,54.28,2z"/>
	<path class="st6" d="M155.32,2h-9.6c-2.75,0-5,2.25-5,5v4.8v29.3c0,2.75,2.25,5,5,5h9.6c2.75,0,5-2.25,5-5V11.8V7
		C160.32,4.25,158.07,2,155.32,2z"/>
	<rect x="19.15" y="77.95" class="st6" width="24.5" height="24.5"/>
	<rect x="53.45" y="77.95" class="st6" width="24.5" height="24.5"/>
	<rect x="87.75" y="77.95" class="st6" width="24.5" height="24.5"/>
	<rect x="122.05" y="77.95" class="st6" width="24.5" height="24.5"/>
	<rect x="156.35" y="77.95" class="st6" width="24.5" height="24.5"/>
	<rect x="19.15" y="117.15" class="st6" width="24.5" height="24.5"/>
	<rect x="53.45" y="117.15" class="st6" width="24.5" height="24.5"/>
	<rect x="87.75" y="117.15" class="st6" width="24.5" height="24.5"/>
	<rect x="122.05" y="117.15" class="st6" width="24.5" height="24.5"/>
	<rect x="156.35" y="117.15" class="st6" width="24.5" height="24.5"/>
	<rect x="19.15" y="156.35" class="st6" width="24.5" height="24.5"/>
	<rect x="53.45" y="156.35" class="st6" width="24.5" height="24.5"/>
	<rect x="87.75" y="156.35" class="st6" width="24.5" height="24.5"/>
	<rect x="122.05" y="156.35" class="st6" width="24.5" height="24.5"/>
	<path class="st6" d="M177.4,169.66c4.05-2.44,5.9-9.46,5.9-9.46s-5.45-1.74-9.68-0.77c-5.06,1.16-5.79,8.76-5.79,8.76
		s6.3-5.48,9.98-5.1c-3.67-0.38-9.98,5.1-9.98,5.1S170.67,173.71,177.4,169.66z"/>
	<path class="st6" d="M159.73,170.85c5.86,2.83,7.95-1.62,8.1-1.98v-0.05c-0.16-0.12-5.89-4.2-8.98-3.59
		c3.09-0.61,8.81,3.47,8.98,3.59v-0.06c-0.15-0.72-1.49-6.45-5.66-7.01c-3.72-0.5-8.27,1.43-8.27,1.43S156.05,169.07,159.73,170.85z
		"/>
	<path class="st6" d="M167.85,168.84c0,0,0-0.03-0.02-0.07v0.06C167.83,168.83,167.85,168.84,167.85,168.84z"/>
	<path class="st6" d="M167.83,168.87c0.01-0.01,0.02-0.03,0.02-0.03s-0.01-0.01-0.02-0.01V168.87z"/>
</g>
</svg>
