<?xml version="1.0" encoding="utf-8"?>
<!-- Generator: Adobe Illustrator 24.3.0, SVG Export Plug-In . SVG Version: 6.00 Build 0)  -->
<svg version="1.1" id="Logo" xmlns="http://www.w3.org/2000/svg" xmlns:xlink="http://www.w3.org/1999/xlink" x="0px" y="0px"
	 viewBox="0 0 200 200" style="enable-background:new 0 0 200 200;" xml:space="preserve">
<style type="text/css">
	.st0{fill:#222222;}
	.st1{fill:#FFFFFF;stroke:#222222;stroke-width:3;stroke-linecap:round;stroke-linejoin:round;stroke-miterlimit:10;}
	.st2{fill:none;stroke:#222222;stroke-width:3;stroke-linecap:round;stroke-linejoin:round;stroke-miterlimit:10;}
	.st3{fill:#000222;}
	.st4{fill:#FFFFFF;stroke:#000222;stroke-width:3;stroke-linecap:round;stroke-linejoin:round;stroke-miterlimit:10;}
	.st5{fill:none;stroke:#000222;stroke-width:3;stroke-linecap:round;stroke-linejoin:round;stroke-miterlimit:10;}
	.st6{fill:none;stroke:#000000;stroke-width:3;stroke-linecap:round;stroke-linejoin:round;stroke-miterlimit:10;}
	.st7{fill:none;}
	.st8{fill:#FFFFFF;stroke:#000000;stroke-width:3;stroke-linecap:round;stroke-linejoin:round;stroke-miterlimit:10;}
	.st9{fill:#FFFFFF;}
	.st10{fill:none;stroke:#000000;stroke-width:3;stroke-linecap:round;stroke-linejoin:round;stroke-dasharray:0.9996,14.9946;}
	.st11{fill:#FFFFFF;stroke:#000000;stroke-width:3;stroke-miterlimit:10;}
	.st12{fill:#E9A150;stroke:#222222;stroke-width:3;stroke-linecap:round;stroke-linejoin:round;stroke-miterlimit:10;}
	.st13{fill:#4D7A42;stroke:#222222;stroke-width:3;stroke-linecap:round;stroke-linejoin:round;stroke-miterlimit:10;}
	.st14{fill:#DD9D9D;stroke:#222222;stroke-width:3;stroke-linecap:round;stroke-linejoin:round;stroke-miterlimit:10;}
	.st15{fill:#A7C6D8;stroke:#222222;stroke-width:3;stroke-linecap:round;stroke-linejoin:round;stroke-miterlimit:10;}
	.st16{fill:#B18BCB;stroke:#222222;stroke-width:3;stroke-linecap:round;stroke-linejoin:round;stroke-miterlimit:10;}
	.st17{fill:#F7C705;stroke:#222222;stroke-width:3;stroke-linecap:round;stroke-linejoin:round;stroke-miterlimit:10;}
	.st18{fill:#91B773;stroke:#222222;stroke-width:3;stroke-linecap:round;stroke-linejoin:round;stroke-miterlimit:10;}
</style>
<g>
	<g>
		<path class="st1" d="M96.19,144.8c0,0,1.6-16.55,9.97-29.37c4.25-6.5,10.23-12.04,18.64-13.97c4.34-1,8.94-1.41,13.5-1.45
			c5.6-0.05,11.14,0.47,16.09,1.2c0.01-0.41,0.04-0.81,0.04-1.21c0-9.92-2.67-19.21-7.3-27.22c-4.78-8.26-11.66-15.15-19.93-19.93
			c-8.01-4.63-17.3-7.3-27.22-7.3c-9.92,0-19.21,2.67-27.22,7.3c-8.26,4.78-15.15,11.66-19.93,19.93c-4.63,8.01-7.3,17.3-7.3,27.22
			c0,4.84,0.65,9.54,1.84,14.01c6.6-1.29,13.99-2.02,20.82-1.1c21.97,2.95,28.06,35.03,28.06,35.03L96.19,144.8z"/>
		<path class="st1" d="M68.21,112.9c-6.83-0.92-14.22-0.18-20.82,1.1c-11.19,2.18-20.1,5.95-20.1,5.95s10.66,29.15,28.83,37.94
			c19.96,9.65,31.07,2.19,36.31-3.98c2.68-3.16,3.83-5.98,3.83-5.98S90.19,115.86,68.21,112.9z"/>
		<path class="st1" d="M154.4,101.21c-4.95-0.73-10.49-1.25-16.09-1.2c-4.56,0.04-9.16,0.46-13.5,1.45
			c-8.41,1.93-14.4,7.47-18.64,13.97c-8.37,12.82-9.97,29.37-9.97,29.37s2.69,5.21,8.51,9.4c7.47,5.38,20.1,9.07,38.79-2.19
			c20.01-12.05,29.2-46.77,29.2-46.77S164.89,102.76,154.4,101.21z"/>
	</g>
	<polyline class="st1" points="67.34,43.43 51,15.13 67.34,43.43 	"/>
	<polyline class="st1" points="43.43,67.34 15.13,51 43.43,67.34 	"/>
	<polyline class="st1" points="156.57,67.34 184.87,51 156.57,67.34 	"/>
	<polyline class="st1" points="132.66,43.43 149,15.13 132.66,43.43 	"/>
	<line class="st1" x1="100" y1="2" x2="100" y2="34.67"/>
	<line class="st1" x1="34.67" y1="100" x2="2" y2="100"/>
	<line class="st1" x1="15.13" y1="149" x2="35.77" y2="137.08"/>
	<line class="st1" x1="184.87" y1="149" x2="159.93" y2="134.6"/>
	<line class="st1" x1="198" y1="100" x2="165.33" y2="100"/>
	<path class="st1" d="M96.19,144.8c0,0,31.17-27.09,49.35-25.24"/>
	<path class="st1" d="M96.27,147.94c0,0-28.97-20.85-44.47-17.81"/>
	<line class="st1" x1="96.19" y1="144.8" x2="96.19" y2="198"/>
</g>
</svg>
