<?xml version="1.0" encoding="utf-8"?>
<!-- Generator: Adobe Illustrator 24.3.0, SVG Export Plug-In . SVG Version: 6.00 Build 0)  -->
<svg version="1.1" id="Logo" xmlns="http://www.w3.org/2000/svg" xmlns:xlink="http://www.w3.org/1999/xlink" x="0px" y="0px"
	 viewBox="0 0 200 200" style="enable-background:new 0 0 200 200;" xml:space="preserve">
<style type="text/css">
	.st0{fill:#222222;}
	.st1{fill:#FFFFFF;stroke:#222222;stroke-width:3;stroke-linecap:round;stroke-linejoin:round;stroke-miterlimit:10;}
	.st2{fill:none;stroke:#222222;stroke-width:3;stroke-linecap:round;stroke-linejoin:round;stroke-miterlimit:10;}
	.st3{fill:#000222;}
	.st4{fill:#FFFFFF;stroke:#000222;stroke-width:3;stroke-linecap:round;stroke-linejoin:round;stroke-miterlimit:10;}
	.st5{fill:none;stroke:#000222;stroke-width:3;stroke-linecap:round;stroke-linejoin:round;stroke-miterlimit:10;}
	.st6{fill:none;stroke:#000000;stroke-width:3;stroke-linecap:round;stroke-linejoin:round;stroke-miterlimit:10;}
	.st7{fill:none;}
	.st8{fill:#FFFFFF;stroke:#000000;stroke-width:3;stroke-linecap:round;stroke-linejoin:round;stroke-miterlimit:10;}
	.st9{fill:#FFFFFF;}
	.st10{fill:none;stroke:#000000;stroke-width:3;stroke-linecap:round;stroke-linejoin:round;stroke-dasharray:0.9996,14.9946;}
	.st11{fill:#FFFFFF;stroke:#000000;stroke-width:3;stroke-miterlimit:10;}
	.st12{fill:#E9A150;stroke:#222222;stroke-width:3;stroke-linecap:round;stroke-linejoin:round;stroke-miterlimit:10;}
	.st13{fill:#4D7A42;stroke:#222222;stroke-width:3;stroke-linecap:round;stroke-linejoin:round;stroke-miterlimit:10;}
	.st14{fill:#DD9D9D;stroke:#222222;stroke-width:3;stroke-linecap:round;stroke-linejoin:round;stroke-miterlimit:10;}
	.st15{fill:#A7C6D8;stroke:#222222;stroke-width:3;stroke-linecap:round;stroke-linejoin:round;stroke-miterlimit:10;}
	.st16{fill:#B18BCB;stroke:#222222;stroke-width:3;stroke-linecap:round;stroke-linejoin:round;stroke-miterlimit:10;}
	.st17{fill:#F7C705;stroke:#222222;stroke-width:3;stroke-linecap:round;stroke-linejoin:round;stroke-miterlimit:10;}
	.st18{fill:#91B773;stroke:#222222;stroke-width:3;stroke-linecap:round;stroke-linejoin:round;stroke-miterlimit:10;}
</style>
<g>
	<g>
		<path class="st1" d="M129.32,102.07c-22.4,13.49-31.88-4.86-31.88-4.86s2.43-25.35,19.28-29.21c14.13-3.24,32.28,2.55,32.28,2.55
			S142.81,93.94,129.32,102.07z"/>
		<path class="st1" d="M97.44,97.2c0,0,21.01-18.26,33.26-17.01"/>
		<path class="st1" d="M70.43,106.03c20.35,9.83,27.05-6.71,27.05-6.71s-4.1-21.62-18.91-23.61C66.16,74.04,51,80.46,51,80.46
			S58.18,100.1,70.43,106.03z"/>
		<path class="st1" d="M97.49,99.32c0,0-19.53-14.05-29.97-12"/>
		<line class="st1" x1="97.44" y1="97.2" x2="97.44" y2="133.06"/>
	</g>
	<g>
		<g>
			<path class="st2" d="M15.99,109.17c4.56,42.38,40.42,75.39,84.01,75.39s79.46-33.01,84.01-75.39"/>
			<path class="st2" d="M184.01,90.9c-4.56-42.38-40.42-75.39-84.01-75.39S20.54,48.52,15.99,90.9"/>
		</g>
		<polyline class="st2" points="184.52,90.9 198,67.16 184.52,90.9 158.04,84.32 		"/>
		<polyline class="st2" points="15.48,109.17 2,132.9 15.48,109.17 41.96,115.75 		"/>
	</g>
</g>
</svg>
