<?xml version="1.0" encoding="utf-8"?>
<!-- Generator: Adobe Illustrator 24.3.0, SVG Export Plug-In . SVG Version: 6.00 Build 0)  -->
<svg version="1.1" id="Logo" xmlns="http://www.w3.org/2000/svg" xmlns:xlink="http://www.w3.org/1999/xlink" x="0px" y="0px"
	 viewBox="0 0 200 200" style="enable-background:new 0 0 200 200;" xml:space="preserve">
<style type="text/css">
	.st0{fill:#222222;}
	.st1{fill:#FFFFFF;stroke:#222222;stroke-width:3;stroke-linecap:round;stroke-linejoin:round;stroke-miterlimit:10;}
	.st2{fill:none;stroke:#222222;stroke-width:3;stroke-linecap:round;stroke-linejoin:round;stroke-miterlimit:10;}
	.st3{fill:#000222;}
	.st4{fill:#FFFFFF;stroke:#000222;stroke-width:3;stroke-linecap:round;stroke-linejoin:round;stroke-miterlimit:10;}
	.st5{fill:none;stroke:#000222;stroke-width:3;stroke-linecap:round;stroke-linejoin:round;stroke-miterlimit:10;}
	.st6{fill:none;stroke:#000000;stroke-width:3;stroke-linecap:round;stroke-linejoin:round;stroke-miterlimit:10;}
	.st7{fill:none;}
	.st8{fill:#FFFFFF;stroke:#000000;stroke-width:3;stroke-linecap:round;stroke-linejoin:round;stroke-miterlimit:10;}
	.st9{fill:#FFFFFF;}
	.st10{fill:none;stroke:#000000;stroke-width:3;stroke-linecap:round;stroke-linejoin:round;stroke-dasharray:0.9996,14.9946;}
	.st11{fill:#FFFFFF;stroke:#000000;stroke-width:3;stroke-miterlimit:10;}
	.st12{fill:#E9A150;stroke:#222222;stroke-width:3;stroke-linecap:round;stroke-linejoin:round;stroke-miterlimit:10;}
	.st13{fill:#4D7A42;stroke:#222222;stroke-width:3;stroke-linecap:round;stroke-linejoin:round;stroke-miterlimit:10;}
	.st14{fill:#DD9D9D;stroke:#222222;stroke-width:3;stroke-linecap:round;stroke-linejoin:round;stroke-miterlimit:10;}
	.st15{fill:#A7C6D8;stroke:#222222;stroke-width:3;stroke-linecap:round;stroke-linejoin:round;stroke-miterlimit:10;}
	.st16{fill:#B18BCB;stroke:#222222;stroke-width:3;stroke-linecap:round;stroke-linejoin:round;stroke-miterlimit:10;}
	.st17{fill:#F7C705;stroke:#222222;stroke-width:3;stroke-linecap:round;stroke-linejoin:round;stroke-miterlimit:10;}
	.st18{fill:#91B773;stroke:#222222;stroke-width:3;stroke-linecap:round;stroke-linejoin:round;stroke-miterlimit:10;}
</style>
<g>
	<g>
		<path class="st1" d="M143.5,54.01c-33.24,20.01-47.31-7.22-47.31-7.22S99.8,9.19,124.81,3.46c20.96-4.8,47.9,3.79,47.9,3.79
			S163.51,41.97,143.5,54.01z"/>
		<path class="st1" d="M96.19,46.8c0,0,31.17-27.09,49.35-25.24"/>
		<path class="st1" d="M56.13,59.89c30.19,14.59,40.14-9.95,40.14-9.95S90.19,17.86,68.21,14.9c-18.42-2.48-40.92,7.05-40.92,7.05
			S37.95,51.11,56.13,59.89z"/>
		<path class="st1" d="M96.27,49.94c0,0-28.97-20.85-44.47-17.81"/>
		<line class="st1" x1="96.19" y1="46.8" x2="96.19" y2="100"/>
	</g>
	<g>
		<path class="st1" d="M109.4,176.68c-0.85-5.37-2.92-8.69-6.93-12.77c-4.19-4.28-8.81-8.16-12.62-12.79
			c-3.81-4.63-6.75-10.34-6.49-16.33c0.36-8.31,6.56-14.99,11.9-21.37c1.67-1.99,3.32-4.09,4.14-6.56c0.74-2.23,0.71-4.55,0.33-6.87
			H2c0,54.12,43.88,98,98,98c1.44,0,2.83-0.15,4.25-0.21c0.13-0.21,0.28-0.4,0.4-0.61C108.74,190.16,110.5,183.62,109.4,176.68z"/>
		<path class="st1" d="M156.17,154.87c-0.24-8.07,2.89-16.67-0.65-23.93c-1.48-3.03-3.97-5.42-6.38-7.77
			c-3.91-3.81-7.8-7.77-10.47-12.53c-1.82-3.24-2.94-6.94-3.06-10.62H99.74c0.38,2.32,0.41,4.64-0.33,6.87
			c-0.82,2.47-2.47,4.56-4.14,6.56c-5.34,6.37-11.54,13.06-11.9,21.37c-0.26,5.99,2.68,11.7,6.49,16.33
			c3.81,4.63,8.42,8.51,12.62,12.79c4.01,4.09,6.08,7.4,6.93,12.77c1.09,6.93-0.66,13.48-4.75,20.49c-0.12,0.21-0.28,0.4-0.4,0.61
			c22.97-0.99,43.86-9.83,60.08-23.97C159.43,168.77,156.38,161.91,156.17,154.87z"/>
		<path class="st1" d="M198,100h-62.39c0.12,3.69,1.25,7.38,3.06,10.62c2.67,4.77,6.56,8.72,10.47,12.53
			c2.41,2.35,4.9,4.74,6.38,7.77c3.54,7.26,0.41,15.86,0.65,23.93c0.21,7.04,3.26,13.9,8.16,18.95C184.92,155.85,198,129.48,198,100
			z"/>
	</g>
</g>
</svg>
