<?xml version="1.0" encoding="utf-8"?>
<!-- Generator: Adobe Illustrator 24.3.0, SVG Export Plug-In . SVG Version: 6.00 Build 0)  -->
<svg version="1.1" id="Logo" xmlns="http://www.w3.org/2000/svg" xmlns:xlink="http://www.w3.org/1999/xlink" x="0px" y="0px"
	 viewBox="0 0 200 200" style="enable-background:new 0 0 200 200;" xml:space="preserve">
<style type="text/css">
	.st0{fill:#222222;}
	.st1{fill:#FFFFFF;stroke:#222222;stroke-width:3;stroke-linecap:round;stroke-linejoin:round;stroke-miterlimit:10;}
	.st2{fill:none;stroke:#222222;stroke-width:3;stroke-linecap:round;stroke-linejoin:round;stroke-miterlimit:10;}
	.st3{fill:#000222;}
	.st4{fill:#FFFFFF;stroke:#000222;stroke-width:3;stroke-linecap:round;stroke-linejoin:round;stroke-miterlimit:10;}
	.st5{fill:none;stroke:#000222;stroke-width:3;stroke-linecap:round;stroke-linejoin:round;stroke-miterlimit:10;}
	.st6{fill:none;stroke:#000000;stroke-width:3;stroke-linecap:round;stroke-linejoin:round;stroke-miterlimit:10;}
	.st7{fill:none;}
	.st8{fill:#FFFFFF;stroke:#000000;stroke-width:3;stroke-linecap:round;stroke-linejoin:round;stroke-miterlimit:10;}
	.st9{fill:#FFFFFF;}
	.st10{fill:none;stroke:#000000;stroke-width:3;stroke-linecap:round;stroke-linejoin:round;stroke-dasharray:0.9996,14.9946;}
	.st11{fill:#FFFFFF;stroke:#000000;stroke-width:3;stroke-miterlimit:10;}
	.st12{fill:#E9A150;stroke:#222222;stroke-width:3;stroke-linecap:round;stroke-linejoin:round;stroke-miterlimit:10;}
	.st13{fill:#4D7A42;stroke:#222222;stroke-width:3;stroke-linecap:round;stroke-linejoin:round;stroke-miterlimit:10;}
	.st14{fill:#DD9D9D;stroke:#222222;stroke-width:3;stroke-linecap:round;stroke-linejoin:round;stroke-miterlimit:10;}
	.st15{fill:#A7C6D8;stroke:#222222;stroke-width:3;stroke-linecap:round;stroke-linejoin:round;stroke-miterlimit:10;}
	.st16{fill:#B18BCB;stroke:#222222;stroke-width:3;stroke-linecap:round;stroke-linejoin:round;stroke-miterlimit:10;}
	.st17{fill:#F7C705;stroke:#222222;stroke-width:3;stroke-linecap:round;stroke-linejoin:round;stroke-miterlimit:10;}
	.st18{fill:#91B773;stroke:#222222;stroke-width:3;stroke-linecap:round;stroke-linejoin:round;stroke-miterlimit:10;}
</style>
<g>
	<g>
		<path class="st1" d="M137.81,54.01C104.57,74.02,90.5,46.8,90.5,46.8s3.61-37.61,28.61-43.34c20.96-4.8,47.9,3.79,47.9,3.79
			S157.82,41.96,137.81,54.01z"/>
		<path class="st1" d="M90.5,46.8c0,0,31.17-27.09,49.35-25.24"/>
		<path class="st1" d="M50.43,59.89c30.19,14.59,40.14-9.95,40.14-9.95S84.49,17.86,62.52,14.9C44.1,12.43,21.6,21.95,21.6,21.95
			S32.26,51.1,50.43,59.89z"/>
		<path class="st1" d="M90.58,49.93c0,0-28.97-20.85-44.47-17.81"/>
		<line class="st1" x1="90.5" y1="46.8" x2="90.5" y2="119.6"/>
	</g>
	<path class="st1" d="M197.99,96.83c-0.09-11.23-6.89-20.85-16.59-25.06L170.43,60.8l-10.97,10.97l0.01,0.01
		c-0.97,0.42-1.92,0.89-2.83,1.42c-0.91-0.53-1.86-1-2.83-1.42l0.01-0.01L142.86,60.8l-10.97,10.97
		c-9.7,4.21-16.5,13.83-16.59,25.06h-0.01v0.22v22.55H90.2c-0.01,0-0.01,0-0.02,0c-7.79,0-15.03,2.31-21.13,6.23
		C58.2,132.8,51,144.95,51,158.8c0,6.96,1.83,13.48,5.01,19.14c-1.63,0.28-3.3,0.46-5.01,0.46c-16.24,0-29.4-13.16-29.4-29.4v-9.8
		c0-5.41-4.39-9.8-9.8-9.8c-2.66,0-5.07,1.07-6.83,2.79C3.14,133.97,2,136.45,2,139.2v9.79V149h0c0,27.01,21.98,48.99,49,48.99
		c0,0,0.01,0,0.01,0h38.91c0.09,0,0.19,0.01,0.28,0.01c0.06,0,0.11-0.01,0.17-0.01h68.25c0.06,0,0.11,0.01,0.17,0.01
		c19.99,0,36.45-14.97,38.86-34.31l0.34-4.89V97.05v-0.22H197.99z"/>
	<circle class="st1" cx="142.86" cy="97.05" r="9.95"/>
	<circle class="st3" cx="142.86" cy="97.05" r="5.69"/>
	<circle class="st1" cx="170.43" cy="97.05" r="9.95"/>
	<circle class="st3" cx="170.43" cy="97.05" r="5.69"/>
</g>
</svg>
