<svg id="Logo" xmlns="http://www.w3.org/2000/svg" viewBox="0 0 200 200"><defs><style>.cls-1{fill:#222;}</style></defs><path class="cls-1" d="M100,0A100,100,0,0,0,59.86,191.59c-.28-7,0-15.37,1.74-23l12.87-54.49a38.39,38.39,0,0,1-3.2-15.82c0-14.82,8.59-25.89,19.29-25.89,9.09,0,13.49,6.83,13.49,15,0,9.15-5.83,22.82-8.83,35.49-2.51,10.61,5.32,19.26,15.78,19.26,18.95,0,31.71-24.33,31.71-53.17,0-21.91-14.76-38.32-41.61-38.32-30.34,0-49.24,22.62-49.24,47.89,0,8.71,2.57,14.86,6.6,19.62,1.85,2.18,2.1,3.06,1.43,5.57-.47,1.84-1.58,6.27-2,8a3.45,3.45,0,0,1-5,2.51c-14-5.71-20.48-21-20.48-38.21,0-28.4,24-62.47,71.47-62.47,38.18,0,63.31,27.63,63.31,57.29,0,39.23-21.81,68.53-54,68.53-10.79,0-21-5.83-24.43-12.46,0,0-5.8,23-7,27.49-2.12,7.71-6.27,15.41-10.07,21.42A100,100,0,1,0,100,0Z"/></svg>